<?xml version="1.0" encoding="UTF-8" standalone="no"?>
<svg
   xmlns:dc="http://purl.org/dc/elements/1.1/"
   xmlns:cc="http://creativecommons.org/ns#"
   xmlns:rdf="http://www.w3.org/1999/02/22-rdf-syntax-ns#"
   xmlns:svg="http://www.w3.org/2000/svg"
   xmlns="http://www.w3.org/2000/svg"
   id="svg10555"
   height="1052.3622"
   width="744.09448"
   version="1.1">
  <defs
     id="defs10557" />
  <metadata
     id="metadata10560">
    <rdf:RDF>
      <cc:Work
         rdf:about="">
        <dc:format>image/svg+xml</dc:format>
        <dc:type
           rdf:resource="http://purl.org/dc/dcmitype/StillImage" />
        <dc:title></dc:title>
      </cc:Work>
    </rdf:RDF>
  </metadata>
  <g
     id="layer1">
    <path
       d="m 642.39082,107.40928 c 7.45,3.45 15.575,11.575 19.025,19.025 l 2.675,5.8 0,386.875 0,386.875 -2.675,5.8 c -3.45,7.45 -11.575,15.575 -19.025,19.025 l -5.8,2.675 -266.87499,0 -266.875,0 -5.799997,-2.675 c -7.45,-3.45 -15.575,-11.575 -19.025,-19.025 l -2.675,-5.8 -0.375,-383.125 c -0.275,-276.075 0,-384.925 1,-389.575 2.625,-12.275 12,-22.65 24.374997,-26.925 5.875,-2.05 22.475,-2.175 271.25,-1.9 l 264.99999,0.275 5.8,2.675 z m -540.49999,-6.95 c -11.749997,2.775 -22.849997,12.05 -28.299997,23.65 l -3.25,6.875 0,388.125 0,388.125 3.25,6.875 c 4.125,8.775 12.35,17 21.125,21.125 l 6.874997,3.25 268.125,0 268.12499,0 6.875,-3.25 c 8.775,-4.125 17,-12.35 21.125,-21.125 l 3.25,-6.875 0,-388.125 0,-388.125 -3.25,-6.875 c -4.125,-8.775 -12.35,-17 -21.125,-21.125 l -6.875,-3.249997 -265.62499,-0.2 c -152.275,-0.1 -267.625,0.3 -270.325,0.924997 z"
       style="fill:#000000;fill-opacity:1;stroke:none"
       id="path9618" />
    <path
       d="m 341.29083,461.90928 c -0.28,15.25102 -0.3435,30.50927 -1.025,45.75 -11.62375,1.1628 -23.31475,1.25267 -34.975,1.8 -12.77575,-20.63825 -29.6555,-38.2396 -44.325,-57.475 15.50175,-8.62988 31.82475,-15.6486 47.87425,-23.17303 9.8695,-4.41765 19.88625,-8.54615 30.19175,-11.84182 4.8625,2.3582 1.15875,8.82192 2.4775,12.97957 0.086,10.6539 -0.0842,21.30753 -0.2185,31.96028 z m 126.05,-76.5 c 5.65,2.9 12.375,12.35 12.375,17.425 0,1.775 -1.9,7.2 -4.225,12.05 -9.3,19.375 -38.75,68.275 -49.8,82.65 l -5.025,6.575 -17.225,0 -17.25,0 -0.925,-12.2 c -1.275,-16.725 0.325,-86.475 2.025,-88.525 1.65,-1.975 40.675,-14.95 54.3,-18.05 13.4,-3.025 19.65,-3.025 25.75,0.075 z m -119.2,-174.875 c -20.675,4.575 -44.675,31.775 -44.675,50.65 0,9.75 3.175,15 13.975,23.15 22.05,16.625 21.725,15.75 23.65,62.625 0.95,22.625 1.1,37.65 0.4,38.3 -0.625,0.575 -24.1,9.625 -52.15,20.125 l -50.975,19.075 -9.025,-9.35 c -13.725,-14.225 -28.425,-23.275 -44.45,-27.35 -6.575,-1.65 -6.75,-1.625 -9.225,1.4 -2.225,2.725 -2.425,4.3 -1.8,13.7 1.325,20.35 9.75,39.825 25.875,59.875 18.375,22.85 56.6,59.75 73.825,71.25 6.575,4.375 8.425,4.975 17.8,5.775 5.75,0.475 18.85,0.3 29.1,-0.375 10.25,-0.7 18.95,-1.05 19.375,-0.8 0.4,0.225 0.825,28.15 0.925,62.05 0.225,70.475 1.675,114.45 5.225,159.1 3.7,46.25 5.8,60.55 9.75,66.6 1.925,2.975 5.1,0.1 7.775,-7.025 12.075,-32.2 22.375,-149.2 22.425,-254.825 0.025,-13.875 0.45,-25.475 0.975,-25.75 0.5,-0.3 15.275,0.2 32.8,1.1 17.525,0.9 33.275,1.325 35,0.925 8.675,-2 17.5,-11.35 17.5,-18.55 0,-2.1 -1.075,-5.925 -2.4,-8.525 l -2.4,-4.7 17.25,-21.5 c 19.34999,-24.1 40.97499,-47.5 46.62499,-50.425 2.15,-1.1 9.175,-2.3 16.575,-2.85 14.15,-1 18.75,-2.925 20.125,-8.4 2.75,-10.925 -17.35,-43.25 -42.825,-68.9 -15.775,-15.925 -20.65,-18.475 -34.82499,-18.275 -5.5,0.075 -14.95,1.325 -21,2.8 -18.15,4.4 -50.25,15.95 -72.3,26.025 -5.425,2.5 -10.125,4.25 -10.45,3.95 -1.025,-1.025 1.8,-28.9 3.9,-38.55 3.075,-14.2 5.85,-18.95 16.925,-28.925 11.575,-10.425 13.95,-14.95 13.275,-25.05 -1.275,-18.45 -28.55,-53.325 -49.925,-63.825 -10.15,-5 -15.6,-6.075 -22.625,-4.525 z"
       style="fill:#800000;fill-opacity:1;stroke:none"
       id="path9628" />
  </g>
</svg>
