<?xml version="1.0" encoding="UTF-8" standalone="no"?>
<svg
   xmlns="http://www.w3.org/2000/svg"
   version="1.1"
   height="236.7748"
   width="168.98067">
  <g
     id="hatsu">
    <path
       d="M 85.195862,0.00412843 C 42.220446,-0.02409381 9.6663956,0.08922218 8.9043951,0.26561116 5.5882819,1.0487783 2.4553978,3.6663596 0.91728568,6.9401394 L 2.9e-5,8.8800726 V 118.41757 227.95559 l 0.91725668,1.93993 c 1.16416742,2.47651 3.48540842,4.79775 5.96191002,5.96192 l 1.9404499,0.91725 H 84.490478 160.16131 l 1.94045,-0.91725 c 2.4765,-1.16417 4.79775,-3.48541 5.96191,-5.96192 l 0.91726,-1.93993 V 118.41757 8.8800726 L 168.06367,6.9401394 C 166.89951,4.4636378 164.57826,2.1423966 162.10176,0.97822917 L 160.16131,0.06097251 Z M 43.671265,1.3637354 c 10.338379,-0.00143 23.795911,0.011086 41.34838,0.030489 l 74.788715,0.077515 1.63711,0.7549927 c 2.10256,0.9736674 4.39552,3.2666246 5.36918,5.3691813 l 0.755,1.6371094 V 118.41757 227.60264 l -0.755,1.6366 c -0.97366,2.10255 -3.26662,4.39603 -5.36918,5.36969 l -1.63711,0.75499 H 84.490478 9.1720791 L 7.5354864,234.60893 C 5.4329295,233.63527 3.1399722,231.34179 2.166305,229.23924 L 1.4113124,227.60264 1.3053757,119.47591 C 1.2277645,41.561355 1.3053066,10.841463 1.587529,9.5291286 2.3283628,6.0648485 4.9741935,3.1371267 8.4666957,1.9306258 9.7102381,1.4967089 12.656126,1.3680348 43.671265,1.3637354 Z"
       style="fill:#000000;stroke:none" />
    <path
       style="fill:#004000;stroke:none"
       d="m 107.54425,46.186555 c -0.30939,0.01214 -0.56995,0.126772 -0.75847,0.352777 -0.21872,0.26811 -1.13242,3.414889 -2.02847,6.985002 -0.889,3.570113 -2.17312,7.84756 -2.85751,9.49856 -1.961442,4.755365 -5.759027,11.906285 -7.170209,13.493729 l -1.28764,1.455224 -3.263196,-4.339169 c -2.201265,-2.921 -3.190875,-4.515556 -3.042708,-4.903613 1.086553,-2.829279 1.109485,-8.519588 0.04409,-10.565699 -0.754875,-1.446389 -2.499431,-2.540002 -4.065765,-2.540002 -0.966613,0 -1.502836,0.319278 -2.822223,1.702138 -10.237618,10.703312 -15.261174,15.351149 -25.188346,23.309819 -2.483557,1.989666 -4.460878,3.813529 -4.383268,4.039309 0.239819,0.684387 2.492378,0.276944 10.839104,-1.931448 4.367392,-1.15711 8.332615,-2.04964 8.819448,-1.993223 1.389947,0.15525 1.285875,1.397058 -0.379235,4.621393 -2.589321,4.981307 -9.837213,16.818708 -10.309936,16.818708 -0.148167,0 -1.234724,-0.79728 -2.39889,-1.76389 -2.46239,-2.053175 -11.869285,-8.336148 -16.130773,-10.777374 -2.504723,-1.439333 -3.069167,-1.640416 -3.880556,-1.358193 -1.291239,0.451556 -1.374072,1.585722 -0.238125,3.518974 1.446389,2.4765 9.775475,12.490093 14.410978,17.330203 l 1.76389,1.84325 -1.349375,2.03731 c -4.960059,7.493 -12.13027,14.81315 -25.761611,26.26432 -5.43278,4.56495 -10.082394,8.55134 -10.336394,8.85472 -0.733778,0.89606 0.03704,1.03542 2.654655,0.48506 10.082393,-2.10253 24.325803,-12.31017 35.586475,-25.49701 l 3.651252,-4.26861 2.213682,0.46744 c 1.220682,0.26097 2.876904,0.478 3.695348,0.48506 0.81139,0.007 1.536279,0.14111 1.613961,0.28222 0.260985,0.49389 -0.696738,6.60931 -1.225905,7.85811 -0.4445,1.0372 -1.509889,1.85034 -6.491112,4.98301 -3.280836,2.06022 -8.184449,5.05708 -10.900839,6.65866 -6.709839,3.95826 -6.861532,4.1064 -5.274032,5.15056 0.867833,0.56445 1.012473,0.53273 4.497919,-0.93483 1.975556,-0.83264 6.103059,-2.77636 9.172226,-4.32156 5.517449,-2.7798 5.579184,-2.79222 6.341184,-2.14311 1.185336,1.00895 1.612196,1.56281 2.592919,3.43959 l 0.899583,1.72861 -1.146529,0.91722 c -5.11528,4.07811 -10.253491,7.31309 -16.871603,10.63625 -8.727729,4.38151 -14.583842,6.38529 -18.908901,6.45584 -2.624667,0.0423 -3.009195,-0.0547 -5.415141,-1.29644 -1.425222,-0.73378 -2.885723,-1.28942 -3.245557,-1.22592 -0.635,0.0988 -0.624417,0.1958 0.15875,2.10786 2.039057,4.9882 6.050142,7.77698 11.235978,7.8052 l 2.046113,0.0175 1.896181,2.84866 c 2.420128,3.61959 6.711601,8.23915 9.533824,10.25704 3.866446,2.75872 6.782157,3.65125 9.60438,2.94569 2.497598,-0.62089 6.002518,-4.27214 8.740074,-9.11931 2.8575,-5.06589 9.495017,-18.13631 10.257017,-20.19653 0.423336,-1.15006 0.859015,-1.73745 1.367015,-1.84328 0.931336,-0.19753 10.929062,-1.49753 13.864175,-1.80798 l 2.196042,-0.2293 -0.732013,2.60172 c -3.182059,11.3807 -6.900338,16.77818 -18.55612,26.91696 -1.982613,1.72861 -3.615976,3.34436 -3.615976,3.59833 0,0.64914 0.941919,1.06717 3.051529,1.3494 4.430893,0.59972 10.796699,-2.51709 16.83633,-8.24618 4.981154,-4.73436 7.942794,-11.16367 9.974796,-21.6694 l 0.987777,-5.08 4.065773,-0.45861 c 2.23654,-0.254 8.26735,-0.48683 13.39674,-0.52917 8.51606,-0.0705 9.35744,-0.13578 9.78077,-0.71439 1.29117,-1.76389 -0.06,-4.37089 -2.94569,-5.69733 -1.96844,-0.89609 -2.04083,-0.89953 -8.36966,-0.68795 -3.51367,0.11998 -8.44198,0.52917 -10.95376,0.91723 -2.51883,0.38108 -4.635506,0.64736 -4.69195,0.59091 -0.05644,-0.0564 0.169334,-2.81164 0.49389,-6.12069 l 0.599723,-5.99723 2.910417,-1.13772 c 3.06212,-1.19231 5.62152,-3.05681 6.16479,-4.48909 0.40923,-1.0795 -0.32102,-2.59114 -1.74625,-3.60714 -1.33343,-0.94544 -1.9896,-0.919 -4.445,0.16756 -2.956206,1.30527 -10.980212,3.66183 -13.308545,3.91583 l -2.019655,0.2205 1.234723,-3.13972 c 3.647652,-9.27806 5.422196,-16.46771 5.697363,-23.10696 0.1905,-4.63553 0.164042,-4.863059 -0.732015,-6.817449 -1.044223,-2.286002 -4.861279,-6.304142 -5.820836,-6.120698 -0.451556,0.08467 -0.606776,0.564446 -0.670276,2.046112 -0.55739,12.961065 -1.853849,22.715375 -3.801185,28.592655 -0.515125,1.55928 -0.657928,1.67922 -4.841877,3.95111 -4.409723,2.39889 -9.084032,4.60553 -9.084032,4.29506 0,-0.45147 2.136002,-7.29367 2.495904,-7.99922 0.225708,-0.43745 1.915586,-2.33187 3.757086,-4.2157 1.834446,-1.88383 3.243794,-3.57364 3.130905,-3.75708 -0.529167,-0.85373 -2.67053,-0.76026 -5.909033,0.25577 -1.813276,0.5715 -3.824112,1.15364 -4.480279,1.28761 -1.298223,0.2682 -4.991806,-0.097 -4.991806,-0.48505 0,-0.13406 0.799041,-1.33878 1.772708,-2.67228 3.139723,-4.31103 16.506481,-27.08638 19.455704,-33.161131 0.430318,-0.889085 0.873125,-1.610445 0.978958,-1.596335 0.11289,0.0071 3.801253,5.249336 8.210908,11.641672 l 8.01688,11.624035 -0.88195,1.28764 c -1.954386,2.885729 -0.70386,5.316369 2.65465,5.168199 l 1.61397,-0.0706 4.18924,9.77196 c 4.52267,10.54805 8.83363,19.52273 10.40694,21.66056 1.67929,2.286 5.26521,4.66373 16.413,10.86556 7.51416,4.18395 16.07793,8.11389 17.66535,8.11389 1.96145,0 -2.53654,-9.13872 -9.04875,-18.38853 -3.37256,-4.77664 -5.38869,-6.87742 -11.42119,-11.87981 -12.07911,-10.00476 -13.44965,-11.44056 -19.16465,-20.12596 l -3.32493,-5.080002 2.2225,-1.975557 c 4.40267,-3.929946 7.53533,-6.408198 9.03111,-7.134947 2.49767,-1.206415 2.10961,-2.495891 -2.15194,-6.976171 -2.08139,-2.187223 -3.54542,-3.227919 -4.5332,-3.227919 -0.26811,0 -1.88207,2.106086 -3.58952,4.674309 -1.70039,2.575279 -3.8047,5.665613 -4.66548,6.879169 l -1.56105,2.222503 -1.49048,-1.869723 c -0.8255,-1.023057 -2.50473,-3.185586 -3.73945,-4.81542 -2.046111,-2.702279 -2.201335,-3.019779 -1.763891,-3.704169 1.926171,-3.005667 4.106341,-6.863308 8.008061,-14.172869 4.35328,-8.156141 4.54907,-8.470226 6.05896,-9.189837 0.85379,-0.409307 1.76565,-1.031888 2.01965,-1.384667 0.72673,-0.987777 0.58033,-3.85403 -0.2734,-5.547448 -1.70864,-3.393273 -4.86466,-6.230284 -6.53521,-6.164781 z M 80.495,127.91638 c 0.01976,0.003 0.03196,0.009 0.03528,0.0178 0.05644,0.14816 -0.361598,1.52047 -0.926044,3.0515 -0.5715,1.53108 -1.146527,3.05683 -1.287637,3.3955 -0.458613,1.12183 0.756708,0.68791 3.712988,-1.32292 2.328333,-1.5875 2.975681,-1.87678 3.518958,-1.5875 0.36689,0.19755 1.50989,0.56797 2.540003,0.82903 l 1.869723,0.48505 0.229304,1.8962 c 0.119946,1.05128 0.243416,3.75708 0.264583,6.01486 0.03528,3.97934 0.01045,4.1134 -0.758471,4.3039 -1.806223,0.4445 -15.48526,2.06375 -15.689799,1.85208 -0.127072,-0.11994 -0.347488,-1.28586 -0.502709,-2.58409 -0.395112,-3.25266 -2.166056,-6.8545 -4.480282,-9.08406 l -1.825625,-1.75505 1.684515,-0.87311 c 2.686193,-1.38072 11.001592,-4.69627 11.615214,-4.63906 z m -16.412994,22.60426 c 0.127,0 0.07937,0.64558 -0.09701,1.42875 -1.284111,5.70794 -5.483934,13.77775 -8.581324,16.50117 -2.850446,2.49775 -6.286503,3.43431 -10.618616,2.88398 -3.711223,-0.47273 -6.161196,-1.88909 -7.417157,-4.29509 -0.479777,-0.91722 -0.463902,-0.95072 0.679098,-1.33172 2.434167,-0.80434 19.434538,-10.66095 24.041817,-13.93473 0.966613,-0.69145 1.866196,-1.25236 1.993196,-1.25236 z m 44.670514,11.75631 c -0.90135,0 -1.60338,0.037 -1.9491,0.11467 -1.31939,0.29633 -0.95074,1.3388 2.05493,5.84727 1.56633,2.35659 3.24732,5.08709 3.74826,6.06779 3.45017,6.87214 8.66423,10.38228 13.86418,9.331 4.1275,-0.83258 6.88975,-2.92983 8.09625,-6.14717 1.55222,-4.15572 0.41628,-7.14022 -3.73944,-9.87778 -2.40595,-1.58045 -8.51783,-3.78531 -12.74411,-4.60375 -2.11666,-0.40748 -6.62693,-0.72839 -9.33097,-0.73203 z" />
  </g>
</svg>
