<?xml version="1.0" encoding="UTF-8" standalone="no"?>
<svg
   xmlns="http://www.w3.org/2000/svg"
   width="598.75"
   height="838.97"
   version="1.1">
  <g
     id="1pin">
    <path
       d="m 572.05006,7.8902675 c 7.45001,3.4500015 15.57501,11.5750015 19.02501,19.0250025 l 2.675,5.800001 V 419.59032 806.46537 l -2.675,5.79999 c -3.45,7.45 -11.575,15.57501 -19.02501,19.02501 l -5.79999,2.67499 H 299.37503 32.500004 l -5.8,-2.67499 c -7.450002,-3.45 -15.575003,-11.57501 -19.0250031,-19.02501 L 5.0000006,806.46537 4.6250005,423.34032 c -0.275,-276.07504 0,-384.925049 1.0000001,-389.575049 C 8.250001,21.49027 17.625002,11.115269 30.000004,6.8402675 35.875004,4.7902672 52.475006,4.6652672 301.25003,4.9402672 l 265.00004,0.275 z M 31.550004,0.94026673 C 19.800003,3.715267 8.7000011,12.990269 3.2500004,24.59027 L 0,31.465271 V 419.59032 807.71536 l 3.2500004,6.875 c 4.1250004,8.77501 12.3500016,17.00001 21.1250026,21.12501 l 6.875,3.25 H 299.37503 567.50007 l 6.87499,-3.25 c 8.775,-4.125 17.00001,-12.35 21.12501,-21.12501 l 3.25,-6.875 V 419.59032 31.465271 l -3.25,-6.875001 C 591.37507,15.815269 583.15006,7.5902675 574.37506,3.465267 L 567.50007,0.21526668 301.87504,0.01526666 C 149.60001,-0.08473336 34.250004,0.31526669 31.550004,0.94026673 Z"
       style="fill:#000000;stroke:none" />
    <path
       d="m 299.17581,241.01554 c -11.92501,0.125 -23.37578,0.399 -25.42577,0.67401 -8.50001,1.05 -23.15001,4.67625 -33.12501,8.201 -24.05001,8.475 -45.1246,21.5505 -64.47461,40.0255 -16.725,15.975 -27.34962,30.17376 -36.72462,49.04875 -11.475,23.10001 -16.62617,41.35051 -18.82618,66.52552 -5.29999,61.025 22.27462,120.99926 73.09963,159.07427 19.175,14.35 48.32655,26.82499 74.47656,31.875 12.24999,2.35 43.62462,2.67625 57.84963,0.576 65.65001,-9.72476 120.92501,-55.62501 142.62501,-118.50001 7.60001,-21.97476 9.89921,-35.50076 9.9492,-58.30077 0.025,-23.2 -2.67459,-39.80025 -9.97459,-60.90025 -8.45001,-24.45001 -21.05001,-44.97376 -39.25001,-63.92401 -14.425,-15.04975 -28.775,-25.52525 -48.125,-35.15026 -30.22501,-15.02499 -49.27423,-19.4995 -82.07424,-19.22475 z m 0.19922,17.32425 c 2.05001,0 3.75041,0.42576 3.77541,0.92576 0.025,0.52525 0.8496,10.49925 1.84959,22.19925 2.27501,26.32501 2.32578,24.37501 -0.44922,24.37501 -2.625,0 -3.87537,-4.97426 -3.90037,-15.32426 -0.025,-3.25 -0.5754,-5.92575 -1.27541,-5.92575 -0.675,0 -1.2504,2.67575 -1.27539,5.92575 -0.025,10.35 -1.27538,15.32426 -3.90038,15.32426 -2.775,0 -2.72422,1.95 -0.44923,-24.37501 1.00001,-11.7 1.8246,-21.674 1.84961,-22.19925 0.025,-0.5 1.7254,-0.92576 3.77539,-0.92576 z m 31.21681,2.99426 c 0.59267,-0.0188 1.3211,0.075 2.1836,0.28125 1.925,0.45 3.57382,0.8995 3.67383,0.9745 0.12499,0.075 -1.12383,10.25 -2.79883,22.625 -1.65,12.37501 -3.0254,22.92575 -3.0254,23.42575 0,0.52525 -1.2004,0.94926 -2.6504,0.94926 -2.5,0 -2.6246,-0.44925 -1.8496,-6.57426 2.225,-17.92475 2.10078,-18.32475 -1.82423,-6.375 -3.3,10 -4.075,11.349 -6.25,10.79901 -1.59999,-0.42501 -2.27655,-1.37426 -1.85154,-2.69925 0.34999,-1.10001 3.20117,-10.7505 6.32617,-21.40051 3.125,-10.65 5.95,-20.09951 6.25,-20.9745 0.21875,-0.65625 0.8286,-1.00001 1.8164,-1.03125 z m -62.63086,0.0275 c 0.2789,-0.005 0.5078,0.004 0.66405,0.0292 0.62501,0.125 4.12578,10.30025 7.80078,22.65025 3.65,12.325 6.64883,22.49975 6.67382,22.59976 0.025,0.075 -1.07382,0.44874 -2.42382,0.79875 -2.12501,0.54999 -2.95155,-0.87375 -6.22655,-10.79876 -3.925,-11.95 -4.04923,-11.55 -1.82422,6.375 0.77499,6.125 0.6504,6.57425 -1.84961,6.57425 -1.45,0 -2.65039,-0.42425 -2.65039,-0.94925 -0.025,-1.47499 -4.875,-38.0005 -5.625,-42.4005 -0.60001,-3.4 -0.29961,-4.05 2.1504,-4.5 1.18125,-0.225 2.47381,-0.36475 3.31054,-0.37875 z m 93.68946,9.47851 c 0.2,0 1.625,0.65074 3.125,1.42575 1.5,0.77499 2.89961,1.5495 3.0996,1.72449 0.62501,0.525 -15.075,44.34926 -15.875,44.32426 -0.425,0 -1.44923,-0.45 -2.32422,-1.00001 -1.2,-0.77499 -0.67578,-3.54925 2.19922,-12.07425 2.05,-6.1 3.6004,-11.22525 3.4004,-11.40025 -0.175,-0.2 -2.8508,4.401 -5.9258,10.201 -3.075,5.80001 -5.8746,10.52351 -6.2246,10.52351 -0.35,0 -1.3996,-0.4995 -2.3496,-1.0995 -1.375,-0.87501 0.55,-5.39976 9.375,-21.84975 6.1,-11.425 11.275,-20.75026 11.5,-20.77525 z m -124.77541,0.0507 c 0.35,-0.025 5.6246,9.29951 11.7246,20.72451 8.825,16.44999 10.75,20.97474 9.375,21.84975 -0.95,0.6 -1.9996,1.0995 -2.3496,1.0995 -0.35,0 -3.1496,-4.7235 -6.2246,-10.5235 -3.075,-5.80001 -5.7508,-10.401 -5.9258,-10.20101 -0.2,0.17501 1.3504,5.30025 3.4004,11.40026 2.875,8.52499 3.39923,11.29925 2.19923,12.07425 -0.87501,0.55 -1.89923,1 -2.32423,1 -0.8,0.025 -16.5,-43.79875 -15.875,-44.29876 0.975,-0.77499 5.45,-3.09999 6,-3.125 z m -29.94728,16.83975 c 1.85485,0.11925 5.05665,4.1175 17.94728,19.25976 7.29999,8.55 13.25,15.92575 13.25,16.42575 0,0.5 -0.87578,1.2485 -1.92578,1.6485 -1.25,0.475 -3.34923,-0.8985 -5.94922,-3.8985 -2.20001,-2.55 -5.87423,-6.62575 -8.19923,-9.05076 l -4.17577,-4.40025 2.875,5.00001 c 1.59999,2.75 4.47577,7.525 6.42577,10.625 3.25,5.175 3.37345,5.72575 1.39845,7.17575 -1.175,0.85 -2.22463,1.425 -2.34962,1.25 -0.125,-0.175 -5.69883,-9.27475 -12.42383,-20.22475 l -12.22655,-19.92575 2.875,-2.32426 c 1.0703,-0.867 1.6354,-1.6145 2.4785,-1.5605 z m 185.47075,0.41801 c 0.2803,0.007 0.53358,0.0855 0.77733,0.21675 1.275,0.675 2.64882,1.77574 3.04882,2.42574 0.525,0.85 -17.8492,32.59976 -23.6992,40.97476 -0.12501,0.175 -1.17463,-0.4 -2.34963,-1.25 -1.975,-1.45 -1.85155,-2.00075 1.39845,-7.17575 1.95,-3.1 4.82577,-7.875 6.42577,-10.625 l 2.87501,-5.00001 -4.17578,4.40025 c -2.325,2.42501 -5.99923,6.50076 -8.19922,9.05076 -2.60001,3 -4.69923,4.3735 -5.94923,3.8985 -1.05001,-0.4 -1.92578,-1.15 -1.92578,-1.625 0,-0.5 6.8,-8.8495 15.125,-18.5995 11.35313,-13.27825 14.68619,-16.73776 16.64846,-16.6915 z m -210.29888,21.44149 c 0.6,0 9.2508,6.276 19.17581,13.95101 9.94999,7.675 18.0996,14.449 18.0996,15.049 0,3.20001 -4.45001,1.87525 -11.50001,-3.47475 -4.32499,-3.275 -8.725,-6.55075 -9.75,-7.30075 -1.02499,-0.75 1.92578,2.95125 6.55078,8.20125 7.325,8.3 8.175,9.75025 6.5,11.15026 -1.575,1.29999 -2.22618,1.24924 -3.57618,-0.17576 -0.9,-0.975 -8.22499,-8.7245 -16.24999,-17.2245 -14.02501,-14.825 -14.52461,-15.55126 -12.47461,-17.82625 1.175,-1.3 2.6246,-2.34951 3.2246,-2.34951 z m 234.27543,0.076 c 0.75,-0.05 2.325,0.9735 3.5,2.27351 2.05,2.27499 1.5504,3.00124 -12.4746,17.82625 -8.025,8.49999 -15.35,16.2495 -16.25,17.2245 -1.35,1.425 -2.00118,1.47575 -3.57618,0.17575 -1.675,-1.4 -0.825,-2.85025 6.5,-11.15026 4.62501,-5.25 7.57578,-8.95125 6.55078,-8.20125 -1.02501,0.75 -5.425,4.02576 -9.75,7.30076 -4.77501,3.625 -8.60041,5.67475 -9.77541,5.22475 -1.075,-0.42501 -1.75,-1.3255 -1.5,-2.02551 0.575,-1.725 35.02541,-28.54849 36.77541,-28.6485 z m -116.16017,17.08401 c 6.89121,0.048 13.93203,0.60849 20.41016,1.71474 11.3,1.90001 30.60077,12.15126 40.92578,21.70126 14.85,13.75 22.69882,26.42475 28.04883,45.22451 3.925,13.84999 3.92463,34.6 -0.0254,48.5 -7.62501,26.85 -26.37421,48.90051 -51.57421,60.65051 -12.65,5.875 -21.87463,7.69875 -39.59963,7.79875 -13.95,0.075 -17.12538,-0.299 -25.90038,-3.19925 -26.025,-8.54975 -46.3758,-26.22601 -57.5508,-49.95101 -6.45001,-13.67499 -8.125,-21.84975 -8.125,-39.59975 0,-18.8 1.69999,-26.275 9.625,-42.5 4.925,-10.10001 7.5008,-13.57426 17.1758,-23.19926 11.775,-11.69975 21.37578,-17.79976 36.67578,-23.25001 7.35937,-2.62474 18.4287,-3.9705 29.91405,-3.89049 z m -138.68946,9.08975 c 0.3,0 9.625,4.32475 20.75,9.59975 11.12501,5.3 20.7246,10.05125 21.34961,10.576 0.675,0.57525 0.49922,1.74975 -0.42578,2.84975 -1.35,1.65 -2.82423,1.2495 -11.57422,-3.1505 -5.50001,-2.775 -10.22461,-4.82425 -10.47461,-4.57425 -0.25,0.27525 3.7246,3.39925 8.8496,6.94925 6.50001,4.525 9.09923,7.05 8.57423,8.375 -0.4,1.02501 -1.22462,1.875 -1.84963,1.875 -0.79999,0 -31.0242,-20.25025 -38.3242,-25.65025 -0.50001,-0.375 2.49999,-6.84975 3.125,-6.84975 z m 275.44923,0.051 c 0.425,-0.025 1.425,1.4245 2.25,3.2245 0.825,1.82499 1.325,3.42425 1.125,3.57425 -7.3,5.4 -37.5242,25.65025 -38.3242,25.65025 -0.625,0 -1.44963,-0.84999 -1.84963,-1.875 -0.525,-1.325 2.07423,-3.85 8.57422,-8.375 5.12501,-3.55 9.09961,-6.674 8.84961,-6.949 -0.25,-0.25 -4.9746,1.799 -10.4746,4.574 -8.7,4.375 -10.22577,4.801 -11.55078,3.176 -0.84999,-1.025 -1.24962,-2.17625 -0.84962,-2.57625 0.84999,-0.825 41.2,-20.34875 42.25,-20.42375 z m -288.36916,30.64051 c 0.16811,-0.003 0.34141,0.018 0.51953,0.0585 1.175,0.24999 9.99999,2.37474 19.625,4.72474 9.625,2.325 19.04923,4.60025 20.94923,5.02526 3.25,0.75 4.625,3.62499 2.375,4.99999 -0.575,0.375 -5.72423,-0.44899 -11.44923,-1.824 -5.7,-1.35 -10.5746,-2.25 -10.8496,-1.99999 -0.275,0.27499 2.775,1.8 6.75,3.375 11.85001,4.69999 14.07383,6.04899 13.29883,8.07399 -0.4,1.02501 -1.22423,1.875 -1.82423,1.875 -0.6,0 -9.1754,-3.34899 -19.0254,-7.449 -9.85,-4.1 -19.3742,-8.00124 -21.19921,-8.70125 -3,-1.15 -3.2004,-1.57375 -2.02539,-4.92375 0.74375,-2.16574 1.67866,-3.22225 2.85547,-3.23449 z m 300.99417,0.71475 c 2.82499,0.0312 3.21212,1.34374 3.72462,3.96874 0.35,1.82501 -3.42383,3.82601 -20.54883,10.926 -11.55,4.775 -21.4758,8.699 -22.05081,8.699 -0.6,0 -1.39882,-0.84999 -1.79881,-1.875 -0.77501,-2.025 1.44882,-3.374 13.29882,-8.07399 3.975,-1.575 7.025,-3.10001 6.75,-3.375 -0.275,-0.25001 -5.1496,0.64999 -10.8496,1.99999 -5.725,1.37501 -10.87423,2.199 -11.44922,1.824 -2.07501,-1.275 -1.00155,-4.22449 1.77345,-4.8495 1.52499,-0.34999 11.80077,-2.85049 22.80077,-5.5255 10.26251,-2.49999 15.5246,-3.75 18.34961,-3.71874 z M 139.6758,399.58979 h 23.67382 23.70118 l -0.40038,2.74999 c -0.375,2.67501 -0.85118,2.75051 -12.57617,2.40051 -6.72501,-0.20001 -12.19923,-0.075 -12.19923,0.24999 0,0.35001 5.35,1.575 11.875,2.75001 10.025,1.82499 11.875,2.49999 11.875,4.5 0,1.37499 -0.8746,2.3495 -2.0996,2.3495 -2.15,0 -41.12579,-7.199 -43.67579,-8.07401 -0.80001,-0.27499 -1.14883,-1.90125 -0.79883,-3.70125 z m 272.02347,0 h 23.70118 23.67383 l 0.625,3.22474 c 0.35,1.8 9.4e-4,3.42626 -0.79883,3.70125 -2.55,0.87501 -41.5258,8.07401 -43.6758,8.07401 -1.225,0 -2.0996,-0.97451 -2.0996,-2.3495 0,-2.00001 1.85,-2.67501 11.875,-4.5 6.525,-1.17501 11.875,-2.4 11.875,-2.75001 0,-0.32499 -5.47577,-0.45 -12.17578,-0.24999 -11.74999,0.35 -12.22462,0.2745 -12.59962,-2.40051 z m -228.6133,25.13678 c 1.88773,0.046 2.53905,0.65975 2.53905,2.213 0,1.99999 -1.85,2.67499 -11.875,4.5 -6.525,1.17499 -11.875,2.4 -11.875,2.74999 0,0.32501 5.47422,0.45 12.19923,0.25001 11.72499,-0.35 12.20117,-0.27476 12.57617,2.40025 l 0.40038,2.75 h -23.85155 c -23.00002,0 -23.82423,-0.075 -23.82423,-2.50001 0,-1.37499 -0.0242,-2.92399 -0.0742,-3.44899 -0.05,-0.975 36.94845,-8.67551 42.89846,-8.90051 0.32185,-0.0155 0.61702,-0.0202 0.88669,-0.0138 z m 232.25978,0.082 c 2.71358,-0.0515 8.73477,1.065 22.08008,3.582 11.025,2.07501 20.69962,4.0005 21.47462,4.27551 0.8,0.275 1.14883,1.89924 0.79883,3.69924 l -0.625,3.22451 h -23.67383 -23.70118 l 0.40038,-2.75 c 0.375,-2.67501 0.84963,-2.75025 12.59962,-2.40025 6.70001,0.19999 12.17578,0.075 12.17578,-0.25001 0,-0.34999 -5.35,-1.575 -11.875,-2.74999 -10.025,-1.82501 -11.875,-2.50001 -11.875,-4.5 0,-1.34525 0.11015,-2.09075 2.2207,-2.13101 z m -4.62111,23.53126 c 0.57501,0 10.50081,3.92625 22.05081,8.70125 17.125,7.1 20.89883,9.09875 20.54883,10.92375 -1.025,5.25 -1.54923,5.25 -22.07423,0.25 -11,-2.675 -21.27578,-5.17525 -22.80077,-5.52525 -2.775,-0.625 -3.84846,-3.57475 -1.77345,-4.84975 0.57499,-0.375 5.72422,0.45125 11.44922,1.82625 5.7,1.35 10.5746,2.25 10.8496,2 0.275,-0.275 -2.775,-1.8 -6.75,-3.375 -11.85,-4.7 -14.07383,-6.05125 -13.29882,-8.07625 0.39999,-1.025 1.19881,-1.875 1.79881,-1.875 z m -223.04884,0.0762 c 0.8,-0.05 1.74845,0.77375 2.14845,1.79875 0.775,2.025 -1.44882,3.37625 -13.29883,8.07625 -3.975,1.575 -7.025,3.1 -6.75,3.375 0.275,0.25 5.1496,-0.65 10.8496,-2 5.725,-1.375 10.87423,-2.20125 11.44923,-1.82625 2.075,1.275 1,4.22475 -1.75,4.84975 -1.55,0.35 -11.82423,2.85025 -22.82423,5.52525 -20.52501,5 -21.04923,5 -22.07422,-0.25 -0.35,-1.825 3.39922,-3.8245 20.19922,-10.8495 11.35,-4.75 21.27578,-8.67425 22.05078,-8.69925 z m 214.34965,22.42375 c 0.6,0 9.39882,5.72625 19.54883,12.70125 10.125,6.975 18.60155,12.84851 18.85155,13.02351 0.35,0.275 -1.95155,5.32575 -2.97656,6.55074 -0.39999,0.47501 -40.59922,-18.49924 -42.32422,-19.94925 -0.675,-0.57499 -0.49923,-1.7515 0.42577,-2.8515 1.35,-1.65 2.82423,-1.24975 11.57423,3.15026 5.5,2.775 10.2246,4.82625 10.4746,4.57624 0.25,-0.27499 -3.7246,-3.40125 -8.84961,-6.95125 -6.49999,-4.52499 -9.09922,-7.05 -8.57422,-8.375 0.4,-1.02499 1.22463,-1.875 1.84963,-1.875 z m -205.59965,0.0762 c 0.8,-0.025 1.74845,0.77376 2.14845,1.79875 0.525,1.325 -2.07422,3.85001 -8.57423,8.375 -5.125,3.55 -9.0996,6.67626 -8.8496,6.95125 0.25,0.25001 4.9746,-1.80124 10.47461,-4.57624 8.74999,-4.40001 10.22422,-4.80026 11.57422,-3.15026 0.925,1.1 1.10078,2.27651 0.42578,2.8515 -1.725,1.45001 -41.92423,20.42426 -42.32424,19.94925 -0.175,-0.225 -1.05037,-1.7505 -1.90038,-3.4005 -1.275,-2.44999 -1.24962,-3.17499 0.15038,-3.99999 0.925,-0.55 9.29923,-6.32451 18.57423,-12.84951 9.275,-6.525 17.52578,-11.89924 18.30078,-11.94925 z m 13.02345,19.94925 c 0.375,0 1.325,0.62575 2.125,1.42576 1.075,1.07499 -0.62423,3.74874 -6.94923,10.92375 -4.59999,5.225 -7.52499,8.90049 -6.5,8.15049 1.025,-0.75 5.42501,-4.02574 9.75,-7.30074 7.05,-5.35 11.50001,-6.67476 11.50001,-3.47475 0,1.275 -35.65041,29 -37.27541,29 -0.6,0 -2.0492,-1.049 -3.1992,-2.324 -2.025,-2.25 -1.4,-3.09975 13.875,-19.34976 8.775,-9.34999 16.27383,-17.02575 16.67383,-17.05075 z m 179.87308,0.24025 c 0.0756,0.003 0.14374,0.0132 0.20311,0.035 0.45,0.17501 7.95038,7.84901 16.65038,17.04901 15.12501,16.00001 15.69883,16.82576 13.67383,19.05075 -1.15,1.30001 -2.5992,2.3495 -3.1992,2.3495 -1.625,0 -37.2754,-27.725 -37.2754,-29 0,-3.2 4.44999,-1.87525 11.5,3.47475 4.325,3.275 8.72499,6.55075 9.75,7.30075 1.025,0.75 -1.9,-2.9255 -6.50001,-8.1505 -6.375,-7.225 -8.02577,-9.84925 -6.92577,-10.94925 0.70001,-0.7 1.59293,-1.17076 2.12306,-1.16 z m -16.88673,16.27926 c 0.043,0 0.0741,0.009 0.0898,0.0312 0.12501,0.175 5.69883,9.2745 12.42382,20.2245 l 12.22659,19.924 -2.875,2.32601 c -2.75,2.25 -2.92541,2.24925 -5.02541,0.0743 -5.2,-5.4 -28.6504,-33.39926 -28.6504,-34.19926 0,-0.5 0.8758,-1.25025 1.9258,-1.65025 1.25,-0.475 3.3492,0.9005 5.9492,3.90026 2.2,2.55 5.87423,6.624 8.19922,9.04899 l 4.17578,4.40025 -2.87499,-5 c -1.60001,-2.74999 -4.47578,-7.525 -6.42578,-10.625 -3.25,-5.175 -3.37342,-5.72375 -1.39843,-7.17375 1.02813,-0.74375 1.95898,-1.27675 2.25975,-1.28125 z m -144.72072,0.94925 c 0.25855,-0.0117 0.49687,0.0567 0.73437,0.18175 1.825,0.975 1.95037,1.649 0.77538,3.94899 -0.8,1.5 -2.39883,4.15001 -3.54883,5.87501 -1.175,1.725 -3.40117,5.375 -4.95118,8.125 l -2.84959,5 4.17577,-4.40025 c 2.325,-2.425 5.99922,-6.49875 8.19923,-9.04875 2.59999,-3 4.69922,-4.3755 5.94922,-3.9005 1.05,0.39999 1.92578,1.1505 1.92578,1.6505 0,0.8 -23.4504,28.799 -28.65041,34.199 -2.1,2.175 -2.27537,2.17601 -5.02537,-0.074 l -2.84963,-2.30076 12.32618,-20.125 c 9.25312,-15.09375 11.97925,-19.04825 13.78908,-19.131 z m 19.03515,12.53125 c 0.425,0 1.44922,0.45 2.32423,1 1.2,0.775 0.67577,3.54925 -2.19923,12.07425 -2.05,6.1 -3.6004,11.22525 -3.4004,11.40026 0.175,0.19999 2.8508,-4.39901 5.9258,-10.19926 3.075,-5.79975 5.8746,-10.52525 6.2246,-10.52525 0.35,0 1.4,0.5 2.375,1.125 1.375,0.875 -0.4996,5.2505 -9.2246,21.52525 -6.05,11.25 -11.15118,20.625 -11.32618,20.87501 -0.3,0.32524 -5.32422,-1.926 -6.57422,-2.95101 -0.625,-0.525 15.075,-44.34925 15.875,-44.32425 z m 105.25001,0 c 0.4,-0.025 4.225,9.875 8.5,22 4.275,12.10001 7.575,22.14926 7.375,22.32425 -1.24999,1.02501 -6.27422,3.27625 -6.57422,2.95101 -0.17501,-0.25001 -5.27618,-9.62501 -11.32618,-20.87501 -8.725,-16.27475 -10.5996,-20.65025 -9.2246,-21.52525 0.975,-0.625 2.025,-1.125 2.375,-1.125 0.35,0 3.1496,4.7255 6.2246,10.52525 3.075,5.80025 5.7508,10.39925 5.9258,10.19926 0.2,-0.17501 -1.3504,-5.30026 -3.4004,-11.40026 -2.875,-8.525 -3.39922,-11.29925 -2.19922,-12.07425 0.87499,-0.55 1.89922,-1 2.32422,-1 z m -81.22461,8.7245 c 2.50001,0 2.6246,0.451 1.84961,6.55075 -2.22501,17.95026 -2.10078,18.3505 1.82422,6.4005 3.275,-9.925 4.10154,-11.35075 6.22655,-10.80075 1.35,0.35 2.44882,0.72575 2.42382,0.80075 -0.025,0.1 -3.04959,10.29875 -6.72459,22.67375 l -6.69923,22.5 -3.57618,-0.40024 c -1.975,-0.225 -3.67383,-0.525 -3.79882,-0.62501 -0.12501,-0.12499 1.12383,-10.34974 2.79882,-22.72474 1.65,-12.375 3.02541,-22.92401 3.02541,-23.44926 0,-0.5 1.20039,-0.92575 2.65039,-0.92575 z m 57.19921,0 c 1.45,0 2.6504,0.42575 2.6504,0.92575 0,0.52525 1.3754,11.07426 3.0254,23.44926 1.675,12.375 2.92382,22.59975 2.79883,22.72474 -0.12501,0.10001 -1.82383,0.40001 -3.79883,0.62501 l -3.57618,0.40024 -6.69922,-22.5 c -3.675,-12.375 -6.6996,-22.57375 -6.7246,-22.67375 -0.025,-0.075 1.07383,-0.45075 2.42383,-0.80075 2.12499,-0.55 2.95155,0.87575 6.22654,10.80075 3.92501,11.95 4.04923,11.54976 1.82423,-6.4005 -0.775,-6.09975 -0.6504,-6.55075 1.8496,-6.55075 z m -22.51366,3.717 c 1.81821,-0.0135 1.52968,1.37375 -0.46095,24.40801 -0.99999,11.67499 -1.8246,21.67575 -1.84959,22.17574 -0.025,0.52526 -1.7254,0.94926 -3.77541,0.94926 -2.04999,0 -3.75039,-0.424 -3.77539,-0.94926 -0.025,-0.49999 -0.8496,-10.50075 -1.84961,-22.17574 -1.99062,-23.03426 -2.27734,-24.41951 -0.45897,-24.40626 0.25975,0.003 0.56133,0.0312 0.9082,0.0312 1.75,0 2.55,1.22575 3.125,4.67575 0.425,2.6 0.77538,7.37501 0.77538,10.62501 0.025,3.275 0.60039,5.94924 1.27539,5.94924 0.70001,0 1.2504,-2.67424 1.27541,-5.94924 0.025,-10.32501 1.27537,-15.30076 3.90037,-15.30076 0.34688,0 0.65043,-0.0312 0.91017,-0.0333 z m 30.73906,-303.61652 c 74.67501,15.12501 132.60002,70.25002 150.77501,143.52503 8.87501,35.725 7.47501,72.775 -4.05,107 -10.05,29.82501 -24.475,52.95001 -47.225,75.72502 -41.35001,41.425 -90.65001,59.6 -151.95002,56.025 -47.5,-2.75 -95.67501,-26.525 -128.52502,-63.42501 -35.425,-39.80001 -53.625,-94.77501 -48.4,-146.25002 4.8,-47.5 22.75,-85.45 56.25001,-119.05001 32.5,-32.575 69.30001,-50.32501 116.30002,-56.10001 13.75,-1.7 42.175,-0.425 56.825,2.55 z m -52.45001,-28.1 c -42.5,4.25 -78.07501,17.175 -110.60001,40.22501 -15.45001,10.975 -40.97501,36.45 -51.60001,51.52501 -63.325004,90 -51.525001,209.05002 28.2,284.52503 42.90001,40.575 101.40002,62.775 158.37503,60.05 42.5,-2.025 82.55,-15.85 117.50001,-40.55 15.35,-10.875 40.875,-36.37501 51.55001,-51.52501 60.82501,-86.35001 52.45,-201.17502 -20.175,-276.62503 -33.35001,-34.675 -74.70001,-56.80001 -122.00002,-65.25001 -11,-1.975 -41.3,-3.375 -51.25001,-2.375 z"
       style="fill:#000040;stroke:none" />
    <path
       d="m 293.12504,413.34031 c -3.625,3.62501 -3.225,9.25001 0.875,12.47501 8.325,6.55 19.125,-5.225 11.4,-12.42501 -3.5,-3.24999 -9.05,-3.275 -12.275,-0.05 z m 5.91602,-79.77776 c -5.59688,0.009 -11.17812,0.79101 -17.51562,2.3535 -27.10001,6.65001 -46.87619,22.07376 -58.45119,45.54876 -6.775,13.72501 -9.19923,23.825 -9.19923,38.12501 0,14.3 2.42423,24.4 9.19923,38.125 10.75,21.8 26.85078,35.376 51.92578,43.80075 12.275,4.125 31.275,4.70025 44.37501,1.37501 24.85,-6.32475 45.17578,-22.62576 56.30078,-45.17576 6.775,-13.725 9.19922,-23.825 9.19922,-38.125 0,-14.30001 -2.42422,-24.4 -9.19922,-38.12501 -11.7,-23.725 -31.47538,-39 -59.02538,-45.625 -6.4,-1.52501 -12.01251,-2.2865 -17.60938,-2.27726 z m -0.4004,16.46876 c 7.52048,0.007 15.34375,1.10825 22.23438,3.25975 4.625,1.45 8.6754,3.075 9.0254,3.625 0.35,0.575 -3.6258,6.87375 -8.8008,14.04875 -9.02501,12.4 -9.62538,12.976 -13.40038,12.42575 -5.875,-0.84975 -12.22382,-0.77575 -16.54882,0.19925 -3.72501,0.825 -4.15,0.44975 -12.50001,-11.15025 -4.75,-6.6 -9.075,-12.725 -9.625,-13.625 -1.25,-2.1 1.89921,-3.74875 13.1992,-6.799 4.90001,-1.33425 10.56678,-1.99 16.41603,-1.98425 z m -46.54103,18.38476 c 0.475,-0.05 5.1008,5.82349 10.3008,13.02349 l 9.4492,13.125 -3.67382,5.80075 c -2.025,3.17501 -4.30038,8.69951 -5.02537,12.22451 l -1.34964,6.45124 -15.5,5.14851 c -17.35,5.72499 -16.95037,5.8265 -16.90037,-4.39851 0.025,-8.89999 3.30037,-22.47625 7.40037,-30.82625 3.475,-7.025 13.39883,-20.39874 15.29883,-20.54874 z m 94.77541,1.377 c 2.06355,-0.16226 3.95897,2.37699 7.6504,7.12299 2.475,3.2 5.6492,8.0745 7.0742,10.8495 5.225,10.30025 8.85,28.87426 7.25,37.32425 l -0.79882,4.30076 -15.27538,-5.076 c -8.4,-2.80001 -15.475,-5.24975 -15.75,-5.47475 -0.25,-0.20001 -0.95117,-3.07501 -1.57618,-6.37501 -0.6,-3.3 -2.77382,-8.69949 -4.79882,-11.9745 l -3.72463,-5.97474 9.42383,-13.05076 c 5.63125,-7.83575 8.18673,-11.48799 10.5254,-11.67174 z m -46.3203,25.29874 c 4.34524,0.0757 8.57772,1.16601 12.0449,3.29875 10.775,6.67526 14.67617,24.19926 7.70117,34.69926 -9.175,13.9 -31.35,14.52575 -41.00001,1.17575 -7.84999,-10.82475 -5.35077,-27.02501 5.32424,-34.5 4.5703,-3.192 10.34292,-4.77126 15.9297,-4.67376 z m -34.92971,42.09775 c 0.35,-0.05 3.00078,2.67576 5.92578,6.05076 3.15,3.675 8.07383,7.5255 12.17382,9.52525 l 6.90041,3.375 v 16.09976 c 0,18.54999 0.72422,17.8005 -12.67578,13.65024 -12.525,-3.875 -24.39963,-12.251 -33.72463,-23.826 -4.8,-5.925 -9.15,-13.6 -8.25,-14.5 0.475,-0.475 28.0754,-10.15001 29.6504,-10.37501 z m 67.97266,0.31251 c 0.0594,-0.006 0.11015,-0.003 0.15235,0.0138 0.7,0.25001 7.57423,2.55 15.32423,5.12501 7.725,2.55 14.05077,5.0745 14.05077,5.5995 0,1.975 -9.825,15.89925 -14.5,20.57425 -8.9,8.9 -24.49923,17.27525 -35.32422,19.02525 l -5.17578,0.82625 v -16.27525 -16.25 l 6.9004,-3.375 c 4.1,-2.025 9.02382,-5.8505 12.17382,-9.5255 2.74218,-3.1875 5.50745,-5.649 6.39843,-5.73825 z"
       style="fill:#800000;stroke:none" />
  </g>
</svg>
