<?xml version="1.0" encoding="UTF-8" standalone="no"?>
<svg
   xmlns:osb="http://www.openswatchbook.org/uri/2009/osb"
   xmlns:dc="http://purl.org/dc/elements/1.1/"
   xmlns:cc="http://creativecommons.org/ns#"
   xmlns:rdf="http://www.w3.org/1999/02/22-rdf-syntax-ns#"
   xmlns:svg="http://www.w3.org/2000/svg"
   xmlns="http://www.w3.org/2000/svg"
   version="1.1"
   id="svg18152"
   viewBox="0 0 598.75002 838.96527"
   height="236.77464mm"
   width="168.98056mm">
  <defs
     id="defs18154">
    <linearGradient
       id="tileblue"
       osb:paint="solid">
      <stop
         style="stop-color:#000040;stop-opacity:1;"
         offset="0"
         id="stop5608" />
    </linearGradient>
  </defs>
  <metadata
     id="metadata18157">
    <rdf:RDF>
      <cc:Work
         rdf:about="">
        <dc:format>image/svg+xml</dc:format>
        <dc:type
           rdf:resource="http://purl.org/dc/dcmitype/StillImage" />
        <dc:title></dc:title>
      </cc:Work>
    </rdf:RDF>
  </metadata>
  <g
     transform="translate(0,-1.2989246e-5)"
     id="layer1">
    <g
       id="2pin"
       transform="matrix(0.025,0,0,-0.025,-800.625,3759.5903)">
      <path
         id="path7320"
         style="fill:#000000;fill-opacity:1;stroke:none"
         d="m 54907,150068 c 298,-138 623,-463 761,-761 l 107,-232 0,-15475 0,-15475 -107,-232 c -138,-298 -463,-623 -761,-761 l -232,-107 -10675,0 -10675,0 -232,107 c -298,138 -623,463 -761,761 l -107,232 -15,15325 c -11,11043 0,15397 40,15583 105,491 480,906 975,1077 235,82 899,87 10850,76 l 10600,-11 232,-107 z m -21620,278 c -470,-111 -914,-482 -1132,-946 l -130,-275 0,-15525 0,-15525 130,-275 c 165,-351 494,-680 845,-845 l 275,-130 10725,0 10725,0 275,130 c 351,165 680,494 845,845 l 130,275 0,15525 0,15525 -130,275 c -165,351 -494,680 -845,845 l -275,130 -10625,8 c -6091,4 -10705,-12 -10813,-37 z" />
      <g
         id="g7322">
        <g
           id="g7324">
          <path
             d="m 42912,147328 c -1627,-308 -2982,-1204 -3933,-2599 -663,-972 -979,-2047 -979,-3329 0,-1710 560,-3060 1775,-4276 845,-847 1846,-1381 3100,-1653 455,-99 1534,-111 2084,-24 1227,196 2372,785 3266,1678 1214,1212 1775,2565 1775,4275 0,1282 -316,2357 -979,3329 -874,1283 -2111,2155 -3584,2527 -536,135 -1975,176 -2525,72 z"
             id="path7326"
             style="fill:url(#tileblue);stroke:none" />
          <path
             d="m 45080,146678 c 1976,-421 3541,-1869 4090,-3785 283,-988 285,-1996 5,-2968 -1043,-3629 -5377,-5093 -8401,-2838 -1067,795 -1813,1994 -2079,3338 -90,452 -89,1502 0,1950 529,2644 2835,4502 5460,4399 320,-12 736,-55 925,-96 z"
             id="path7328"
             style="fill:#ffffff;stroke:none" />
        </g>
        <g
           id="g7330">
          <g
             id="g7332">
            <path
               style="fill:url(#tileblue);fill-opacity:1;stroke:none"
               d="m 43525,146619 c -2334.624,-206.56 -4378.996,-2135.93 -4704.889,-4458.81 -259.797,-1693.39 390.27,-3496.73 1689.536,-4618.44 1606.909,-1558.31 4273.402,-1811.8 6162.902,-621.47 1693.969,995.51 2742.828,2992.53 2532.027,4954.94 -175.679,2351.86 -2154.771,4425.72 -4499.555,4696.46 -390.091,54.86 -786.831,84.6 -1180.021,47.32 z"
               id="path7334" />
            <path
               d="m 42888,145423 c 349,-146 668,-549 820,-1035 132,-424 182,-1525 75,-1663 -120,-155 -208,-65 -656,665 -445,728 -579,889 -698,844 -151,-58 -78,-303 323,-1075 550,-1061 518,-1105 -412,-555 -330,195 -686,433 -792,528 -926,837 -316,2328 966,2363 104,3 273,-30 374,-72 z"
               id="path7336"
               style="fill:#ffffff;stroke:none" />
            <path
               d="m 46186,145307 c 249,-127 527,-393 649,-620 138,-260 115,-704 -56,-1046 -207,-414 -384,-605 -844,-908 -1017,-672 -1229,-668 -859,17 650,1203 719,1408 487,1441 -95,13 -185,-96 -590,-716 -263,-402 -491,-764 -506,-803 -41,-106 -155,-87 -222,37 -40,74 -51,350 -35,887 22,711 35,803 155,1055 260,546 701,815 1285,782 203,-11 404,-58 536,-126 z"
               id="path7338"
               style="fill:#ffffff;stroke:none" />
            <path
               d="m 41325,142632 c 274,-73 401,-132 1010,-470 226,-125 422,-257 436,-295 71,-185 -4,-204 -911,-226 -890,-22 -1110,-65 -1110,-216 0,-136 200,-177 1083,-225 487,-27 905,-68 928,-91 90,-90 -33,-201 -550,-497 -805,-462 -932,-510 -1350,-511 -415,-1 -614,67 -880,301 -460,404 -591,1095 -314,1661 77,157 207,333 291,392 328,234 884,306 1367,177 z"
               id="path7340"
               style="fill:#ffffff;stroke:none" />
            <path
               d="m 47668,142631 c 389,-163 729,-613 805,-1066 85,-507 -193,-1119 -596,-1314 -434,-210 -1101,-185 -1602,61 -469,230 -1022,558 -1046,621 -71,185 4,204 911,226 890,22 1110,65 1110,216 0,136 -200,177 -1083,225 -487,27 -905,68 -928,91 -90,90 33,201 550,497 805,462 932,510 1350,511 200,1 438,-30 529,-68 z"
               id="path7342"
               style="fill:#ffffff;stroke:none" />
            <path
               d="m 44287,141966 c 368,-175 454,-718 159,-1012 -289,-289 -740,-222 -987,146 -198,296 -68,677 295,862 213,109 309,110 533,4 z"
               id="path7344"
               style="fill:#ffffff;stroke:none" />
            <path
               d="m 43100,140457 c 0,-45 -79,-228 -176,-407 -650,-1203 -719,-1408 -487,-1441 95,-13 185,96 590,716 263,402 491,764 506,803 41,106 155,87 222,-37 40,-75 50,-347 33,-887 -28,-878 -88,-1088 -413,-1448 -593,-656 -1771,-465 -2210,357 -138,260 -115,704 56,1046 207,414 384,605 844,908 758,501 1035,605 1035,390 z"
               id="path7346"
               style="fill:#ffffff;stroke:none" />
            <path
               d="m 45660,140196 c 330,-195 686,-433 792,-528 874,-790 381,-2207 -817,-2348 -473,-56 -818,134 -1126,619 -220,345 -306,704 -339,1409 -25,521 -17,644 47,727 120,155 208,65 656,-665 445,-728 579,-889 698,-844 151,58 78,303 -323,1075 -550,1061 -518,1105 412,555 z"
               id="path7348"
               style="fill:#ffffff;stroke:none" />
          </g>
          <g
             id="g7350">
            <g
               id="g7352">
              <path
                 d="m 43750,141650 c -216,-216 -57,-600 250,-600 192,0 350,158 350,350 0,192 -158,350 -350,350 -83,0 -194,-44 -250,-100 z"
                 id="path7354"
                 style="fill:url(#tileblue);stroke:none" />
            </g>
          </g>
        </g>
      </g>
      <g
         id="g7356">
        <g
           id="g7358">
          <path
             d="m 42912,131728 c -1627,-308 -2982,-1204 -3933,-2599 -663,-972 -979,-2047 -979,-3329 0,-1710 560,-3060 1775,-4276 845,-847 1846,-1381 3100,-1653 455,-99 1534,-111 2084,-24 1227,196 2372,785 3266,1678 1214,1212 1775,2565 1775,4275 0,1282 -316,2357 -979,3329 -874,1283 -2111,2155 -3584,2527 -536,135 -1975,176 -2525,72 z"
             id="path7360"
             style="fill:url(#tileblue);stroke:none" />
          <path
             d="m 45080,131078 c 1976,-421 3541,-1869 4090,-3785 283,-988 285,-1996 5,-2968 -1043,-3629 -5377,-5093 -8401,-2838 -1067,795 -1813,1994 -2079,3338 -90,452 -89,1502 0,1950 529,2644 2835,4502 5460,4399 320,-12 736,-55 925,-96 z"
             id="path7362"
             style="fill:#ffffff;stroke:none" />
        </g>
        <g
           id="g7364">
          <g
             id="g7366">
            <path
               d="m 43525,131019 c -1232,-127 -2396,-691 -3256,-1578 -1716,-1772 -1990,-4327 -689,-6430 329,-531 1125,-1320 1670,-1653 2074,-1270 4640,-985 6391,711 1480,1434 1969,3545 1277,5506 -495,1400 -1745,2650 -3143,3143 -680,239 -1623,365 -2250,301 z"
               id="path7368"
               style="fill:url(#tileblue);stroke:none" />
            <path
               d="m 42888,129823 c 349,-146 668,-549 820,-1035 132,-424 182,-1525 75,-1663 -120,-155 -208,-65 -656,665 -445,728 -579,889 -698,844 -151,-58 -78,-303 323,-1075 550,-1061 518,-1105 -412,-555 -330,195 -686,433 -792,528 -926,837 -316,2328 966,2363 104,3 273,-30 374,-72 z"
               id="path7370"
               style="fill:#ffffff;stroke:none" />
            <path
               d="m 46186,129707 c 249,-127 527,-393 649,-620 138,-260 115,-704 -56,-1046 -207,-414 -384,-605 -844,-908 -1017,-672 -1229,-668 -859,17 650,1203 719,1408 487,1441 -95,13 -185,-96 -590,-716 -263,-402 -491,-764 -506,-803 -41,-106 -155,-87 -222,37 -40,74 -51,350 -35,887 22,711 35,803 155,1055 260,546 701,815 1285,782 203,-11 404,-58 536,-126 z"
               id="path7372"
               style="fill:#ffffff;stroke:none" />
            <path
               d="m 41325,127032 c 274,-73 401,-132 1010,-470 226,-125 422,-257 436,-295 71,-185 -4,-204 -911,-226 -890,-22 -1110,-65 -1110,-216 0,-136 200,-177 1083,-225 487,-27 905,-68 928,-91 90,-90 -33,-201 -550,-497 -805,-462 -932,-510 -1350,-511 -415,-1 -614,67 -880,301 -460,404 -591,1095 -314,1661 77,157 207,333 291,392 328,234 884,306 1367,177 z"
               id="path7374"
               style="fill:#ffffff;stroke:none" />
            <path
               d="m 47668,127031 c 389,-163 729,-613 805,-1066 85,-507 -193,-1119 -596,-1314 -434,-210 -1101,-185 -1602,61 -469,230 -1022,558 -1046,621 -71,185 4,204 911,226 890,22 1110,65 1110,216 0,136 -200,177 -1083,225 -487,27 -905,68 -928,91 -90,90 33,201 550,497 805,462 932,510 1350,511 200,1 438,-30 529,-68 z"
               id="path7376"
               style="fill:#ffffff;stroke:none" />
            <path
               d="m 44287,126366 c 368,-175 454,-718 159,-1012 -289,-289 -740,-222 -987,146 -198,296 -68,677 295,862 213,109 309,110 533,4 z"
               id="path7378"
               style="fill:#ffffff;stroke:none" />
            <path
               d="m 43100,124857 c 0,-45 -79,-228 -176,-407 -650,-1203 -719,-1408 -487,-1441 95,-13 185,96 590,716 263,402 491,764 506,803 41,106 155,87 222,-37 40,-75 50,-347 33,-887 -28,-878 -88,-1088 -413,-1448 -593,-656 -1771,-465 -2210,357 -138,260 -115,704 56,1046 207,414 384,605 844,908 758,501 1035,605 1035,390 z"
               id="path7380"
               style="fill:#ffffff;stroke:none" />
            <path
               d="m 45660,124596 c 330,-195 686,-433 792,-528 874,-790 381,-2207 -817,-2348 -473,-56 -818,134 -1126,619 -220,345 -306,704 -339,1409 -25,521 -17,644 47,727 120,155 208,65 656,-665 445,-728 579,-889 698,-844 151,58 78,303 -323,1075 -550,1061 -518,1105 412,555 z"
               id="path7382"
               style="fill:#ffffff;stroke:none" />
          </g>
          <g
             id="g7384">
            <g
               id="g7386">
              <path
                 d="m 43750,126050 c -216,-216 -57,-600 250,-600 192,0 350,158 350,350 0,192 -158,350 -350,350 -83,0 -194,-44 -250,-100 z"
                 id="path7388"
                 style="fill:url(#tileblue);stroke:none" />
            </g>
          </g>
        </g>
      </g>
    </g>
  </g>
</svg>
