<?xml version="1.0" encoding="UTF-8" standalone="no"?>
<!-- Created with Inkscape (http://www.inkscape.org/) -->

<svg
   xmlns:dc="http://purl.org/dc/elements/1.1/"
   xmlns:cc="http://creativecommons.org/ns#"
   xmlns:rdf="http://www.w3.org/1999/02/22-rdf-syntax-ns#"
   xmlns:svg="http://www.w3.org/2000/svg"
   xmlns="http://www.w3.org/2000/svg"
   xmlns:sodipodi="http://sodipodi.sourceforge.net/DTD/sodipodi-0.dtd"
   xmlns:inkscape="http://www.inkscape.org/namespaces/inkscape"
   width="744.09448819"
   height="1052.3622047"
   id="svg10665"
   version="1.1"
   inkscape:version="0.48.5 r10040"
   sodipodi:docname="New document 7">
  <defs
     id="defs10667" />
  <sodipodi:namedview
     id="base"
     pagecolor="#ffffff"
     bordercolor="#666666"
     borderopacity="1.0"
     inkscape:pageopacity="0.0"
     inkscape:pageshadow="2"
     inkscape:zoom="1.4"
     inkscape:cx="351.03247"
     inkscape:cy="923.67707"
     inkscape:document-units="px"
     inkscape:current-layer="layer1"
     showgrid="false"
     inkscape:window-width="1535"
     inkscape:window-height="876"
     inkscape:window-x="65"
     inkscape:window-y="24"
     inkscape:window-maximized="1" />
  <metadata
     id="metadata10670">
    <rdf:RDF>
      <cc:Work
         rdf:about="">
        <dc:format>image/svg+xml</dc:format>
        <dc:type
           rdf:resource="http://purl.org/dc/dcmitype/StillImage" />
        <dc:title></dc:title>
      </cc:Work>
    </rdf:RDF>
  </metadata>
  <g
     inkscape:label="Layer 1"
     inkscape:groupmode="layer"
     id="layer1">
    <path
       style="fill:#000000;stroke:none"
       inkscape:connector-curvature="0"
       d="m 95.032143,50.962684 c -11.75,2.775 -22.85,12.05 -28.3,23.65 l -3.25,6.875 0,388.124996 0,388.12503 3.25,6.875 c 4.125,8.775 12.35,17 21.125,21.125 l 6.875,3.25 268.124997,0 268.125,0 6.875,-3.25 c 8.775,-4.125 17,-12.35 21.125,-21.125 l 3.25,-6.875 0,-388.12503 0,-388.124996 -3.25,-6.875 c -4.125,-8.775 -12.35,-17 -21.125,-21.125 l -6.875,-3.25 -265.625,-0.2 c -152.275,-0.1 -267.624997,0.3 -270.324997,0.925 z"
       id="path7443" />
    <path
       style="fill:#ffffff;stroke:none"
       inkscape:connector-curvature="0"
       d="m 635.53214,57.912684 c 7.45,3.45 15.575,11.575 19.025,19.025 l 2.675,5.8 0,386.874996 0,386.87503 -2.675,5.8 c -3.45,7.45 -11.575,15.575 -19.025,19.025 l -5.8,2.675 -266.875,0 -266.874997,0 -5.8,-2.675 c -7.45,-3.45 -15.575,-11.575 -19.025,-19.025 l -2.675,-5.8 -0.375,-383.12503 c -0.275,-276.075 0,-384.924996 1,-389.574996 2.625,-12.275 12,-22.65 24.375,-26.925 5.875,-2.05 22.474997,-2.175 271.249997,-1.9 l 265,0.275 5.8,2.675 z"
       id="path7445" />
    <path
       style="fill:#000000;stroke:none"
       inkscape:connector-curvature="0"
       d="m 335.65714,126.41268 c -40.675,7.7 -74.55,30.1 -98.325,64.975 -16.575,24.3 -24.475,51.175 -24.475,83.225 0,42.75 14,76.5 44.375,106.9 21.125,21.175 46.15,34.525 77.5,41.325 11.375,2.475 38.35,2.775 52.1,0.6 30.675,-4.9 59.3,-19.625 81.65,-41.95 30.35,-30.3 44.375,-64.125 44.375,-106.875 0,-32.05 -7.9,-58.925 -24.475,-83.225 -21.85,-32.075 -52.775,-53.875 -89.6,-63.175 -13.4,-3.375 -49.375,-4.4 -63.125,-1.8 z"
       id="path7451" />
    <path
       style="fill:#ffffff;stroke:none"
       inkscape:connector-curvature="0"
       d="m 389.85714,142.66268 c 49.4,10.525 88.525,46.725 102.25,94.625 7.075,24.7 7.125,49.9 0.125,74.2 -26.075,90.725 -134.425,127.325 -210.025,70.95 -26.675,-19.875 -45.325,-49.85 -51.975,-83.45 -2.25,-11.3 -2.225,-37.55 0,-48.75 13.225,-66.1 70.875,-112.55 136.5,-109.975 8,0.3 18.4,1.375 23.125,2.4 z"
       id="path7453" />
    <path
       style="fill:#000000;stroke:none"
       inkscape:connector-curvature="0"
       d="m 350.98214,144.13768 c -30.8,3.175 -59.9,17.275 -81.4,39.45 -42.9,44.3 -49.75,108.175 -17.225,160.75 8.225,13.275 28.125,33 41.75,41.325 51.85,31.75 116,24.625 159.775,-17.775 37,-35.85 49.225,-88.625 31.925,-137.65 -12.375,-35 -43.625,-66.25 -78.575,-78.575 -17,-5.975 -40.575,-9.125 -56.25,-7.525 z"
       id="path7459" />
    <path
       style="fill:#ffffff;stroke:none"
       inkscape:connector-curvature="0"
       d="m 335.05714,174.03768 c 8.725,3.65 16.7,13.725 20.5,25.875 3.3,10.6 4.55,38.125 1.875,41.575 -3,3.875 -5.2,1.625 -16.4,-16.625 -11.125,-18.2 -14.475,-22.225 -17.45,-21.1 -3.775,1.45 -1.95,7.575 8.075,26.875 13.75,26.525 12.95,27.625 -10.3,13.875 -8.25,-4.875 -17.15,-10.825 -19.8,-13.2 -23.15,-20.925 -7.9,-58.2 24.15,-59.075 2.6,-0.075 6.825,0.75 9.35,1.8 z"
       id="path7461" />
    <path
       style="fill:#ffffff;stroke:none"
       inkscape:connector-curvature="0"
       d="m 417.50714,176.93768 c 6.225,3.175 13.175,9.825 16.225,15.5 3.45,6.5 2.875,17.6 -1.4,26.15 -5.175,10.35 -9.6,15.125 -21.1,22.7 -25.425,16.8 -30.725,16.7 -21.475,-0.425 16.25,-30.075 17.975,-35.2 12.175,-36.025 -2.375,-0.325 -4.625,2.4 -14.75,17.9 -6.575,10.05 -12.275,19.1 -12.65,20.075 -1.025,2.65 -3.875,2.175 -5.55,-0.925 -1,-1.85 -1.275,-8.75 -0.875,-22.175 0.55,-17.775 0.875,-20.075 3.875,-26.375 6.5,-13.65 17.525,-20.375 32.125,-19.55 5.075,0.275 10.1,1.45 13.4,3.15 z"
       id="path7463" />
    <path
       style="fill:#ffffff;stroke:none"
       inkscape:connector-curvature="0"
       d="m 295.98214,243.81268 c 6.85,1.825 10.025,3.3 25.25,11.75 5.65,3.125 10.55,6.425 10.9,7.375 1.775,4.625 -0.1,5.1 -22.775,5.65 -22.25,0.55 -27.75,1.625 -27.75,5.4 0,3.4 5,4.425 27.075,5.625 12.175,0.675 22.625,1.7 23.2,2.275 2.25,2.25 -0.825,5.025 -13.75,12.425 -20.125,11.55 -23.3,12.75 -33.75,12.775 -10.375,0.025 -15.35,-1.675 -22,-7.525 -11.5,-10.1 -14.775,-27.375 -7.85,-41.525 1.925,-3.925 5.175,-8.325 7.275,-9.8 8.2,-5.85 22.1,-7.65 34.175,-4.425 z"
       id="path7465" />
    <path
       style="fill:#ffffff;stroke:none"
       inkscape:connector-curvature="0"
       d="m 454.55714,243.83768 c 9.725,4.075 18.225,15.325 20.125,26.65 2.125,12.675 -4.825,27.975 -14.9,32.85 -10.85,5.25 -27.525,4.625 -40.05,-1.525 -11.725,-5.75 -25.55,-13.95 -26.15,-15.525 -1.775,-4.625 0.1,-5.1 22.775,-5.65 22.25,-0.55 27.75,-1.625 27.75,-5.4 0,-3.4 -5,-4.425 -27.075,-5.625 -12.175,-0.675 -22.625,-1.7 -23.2,-2.275 -2.25,-2.25 0.825,-5.025 13.75,-12.425 20.125,-11.55 23.3,-12.75 33.75,-12.775 5,-0.025 10.95,0.75 13.225,1.7 z"
       id="path7467" />
    <path
       style="fill:#ffffff;stroke:none"
       inkscape:connector-curvature="0"
       d="m 370.03214,260.46268 c 9.2,4.375 11.35,17.95 3.975,25.3 -7.225,7.225 -18.5,5.55 -24.675,-3.65 -4.95,-7.4 -1.7,-16.925 7.375,-21.55 5.325,-2.725 7.725,-2.75 13.325,-0.1 z"
       id="path7469" />
    <path
       style="fill:#ffffff;stroke:none"
       inkscape:connector-curvature="0"
       d="m 340.35714,298.18768 c 0,1.125 -1.975,5.7 -4.4,10.175 -16.25,30.075 -17.975,35.2 -12.175,36.025 2.375,0.325 4.625,-2.4 14.75,-17.9 6.575,-10.05 12.275,-19.1 12.65,-20.075 1.025,-2.65 3.875,-2.175 5.55,0.925 1,1.875 1.25,8.675 0.825,22.175 -0.7,21.95 -2.2,27.2 -10.325,36.2 -14.825,16.4 -44.275,11.625 -55.25,-8.925 -3.45,-6.5 -2.875,-17.6 1.4,-26.15 5.175,-10.35 9.6,-15.125 21.1,-22.7 18.95,-12.525 25.875,-15.125 25.875,-9.75 z"
       id="path7471" />
    <path
       style="fill:#ffffff;stroke:none"
       inkscape:connector-curvature="0"
       d="m 404.35714,304.71268 c 8.25,4.875 17.15,10.825 19.8,13.2 21.85,19.75 9.525,55.175 -20.425,58.7 -11.825,1.4 -20.45,-3.35 -28.15,-15.475 -5.5,-8.625 -7.65,-17.6 -8.475,-35.225 -0.625,-13.025 -0.425,-16.1 1.175,-18.175 3,-3.875 5.2,-1.625 16.4,16.625 11.125,18.2 14.475,22.225 17.45,21.1 3.775,-1.45 1.95,-7.575 -8.075,-26.875 -13.75,-26.525 -12.95,-27.625 10.3,-13.875 z"
       id="path7473" />
    <path
       style="fill:#000000;stroke:none"
       inkscape:connector-curvature="0"
       d="m 356.60714,268.36268 c -5.4,5.4 -1.425,15 6.25,15 4.8,0 8.75,-3.95 8.75,-8.75 0,-4.8 -3.95,-8.75 -8.75,-8.75 -2.075,0 -4.85,1.1 -6.25,2.5 z"
       id="path7479" />
    <path
       style="fill:#000000;stroke:none"
       inkscape:connector-curvature="0"
       d="m 335.65714,516.41268 c -40.675,7.7 -74.55,30.1 -98.325,64.975 -16.575,24.3 -24.475,51.175 -24.475,83.225 0,42.75 14,76.5 44.375,106.9 21.125,21.175 46.15,34.525 77.5,41.325 11.375,2.475 38.35,2.775 52.1,0.6 30.675,-4.9 59.3,-19.625 81.65,-41.95 30.35,-30.3 44.375,-64.125 44.375,-106.875 0,-32.05 -7.9,-58.925 -24.475,-83.225 -21.85,-32.075 -52.775,-53.875 -89.6,-63.175 -13.4,-3.375 -49.375,-4.4 -63.125,-1.8 z"
       id="path7485" />
    <path
       style="fill:#ffffff;stroke:none"
       inkscape:connector-curvature="0"
       d="m 389.85714,532.66268 c 49.4,10.525 88.525,46.725 102.25,94.625 7.075,24.7 7.125,49.9 0.125,74.2 -26.075,90.725 -134.425,127.325 -210.025,70.95 -26.675,-19.875 -45.325,-49.85 -51.975,-83.45 -2.25,-11.3 -2.225,-37.55 0,-48.75 13.225,-66.1 70.875,-112.55 136.5,-109.975 8,0.3 18.4,1.375 23.125,2.4 z"
       id="path7487" />
    <path
       style="fill:#000000;stroke:none"
       inkscape:connector-curvature="0"
       d="m 350.98214,534.13768 c -30.8,3.175 -59.9,17.275 -81.4,39.45 -42.9,44.3 -49.75,108.175 -17.225,160.75 8.225,13.275 28.125,33 41.75,41.325 51.85,31.75 116,24.625 159.775,-17.775 37,-35.85 49.225,-88.625 31.925,-137.65 -12.375,-35 -43.625,-66.25 -78.575,-78.575 -17,-5.975 -40.575,-9.125 -56.25,-7.525 z"
       id="path7493" />
    <path
       style="fill:#ffffff;stroke:none"
       inkscape:connector-curvature="0"
       d="m 335.05714,564.03768 c 8.725,3.65 16.7,13.725 20.5,25.875 3.3,10.6 4.55,38.125 1.875,41.575 -3,3.875 -5.2,1.625 -16.4,-16.625 -11.125,-18.2 -14.475,-22.225 -17.45,-21.1 -3.775,1.45 -1.95,7.575 8.075,26.875 13.75,26.525 12.95,27.625 -10.3,13.875 -8.25,-4.875 -17.15,-10.825 -19.8,-13.2 -23.15,-20.925 -7.9,-58.2 24.15,-59.075 2.6,-0.075 6.825,0.75 9.35,1.8 z"
       id="path7495" />
    <path
       style="fill:#ffffff;stroke:none"
       inkscape:connector-curvature="0"
       d="m 417.50714,566.93768 c 6.225,3.175 13.175,9.825 16.225,15.5 3.45,6.5 2.875,17.6 -1.4,26.15 -5.175,10.35 -9.6,15.125 -21.1,22.7 -25.425,16.8 -30.725,16.7 -21.475,-0.425 16.25,-30.075 17.975,-35.2 12.175,-36.025 -2.375,-0.325 -4.625,2.4 -14.75,17.9 -6.575,10.05 -12.275,19.1 -12.65,20.075 -1.025,2.65 -3.875,2.175 -5.55,-0.925 -1,-1.85 -1.275,-8.75 -0.875,-22.175 0.55,-17.775 0.875,-20.075 3.875,-26.375 6.5,-13.65 17.525,-20.375 32.125,-19.55 5.075,0.275 10.1,1.45 13.4,3.15 z"
       id="path7497" />
    <path
       style="fill:#ffffff;stroke:none"
       inkscape:connector-curvature="0"
       d="m 295.98214,633.81268 c 6.85,1.825 10.025,3.3 25.25,11.75 5.65,3.125 10.55,6.425 10.9,7.375 1.775,4.625 -0.1,5.1 -22.775,5.65 -22.25,0.55 -27.75,1.625 -27.75,5.4 0,3.4 5,4.425 27.075,5.625 12.175,0.675 22.625,1.7 23.2,2.275 2.25,2.25 -0.825,5.025 -13.75,12.425 -20.125,11.55 -23.3,12.75 -33.75,12.775 -10.375,0.025 -15.35,-1.675 -22,-7.525 -11.5,-10.1 -14.775,-27.375 -7.85,-41.525 1.925,-3.925 5.175,-8.325 7.275,-9.8 8.2,-5.85 22.1,-7.65 34.175,-4.425 z"
       id="path7499" />
    <path
       style="fill:#ffffff;stroke:none"
       inkscape:connector-curvature="0"
       d="m 454.55714,633.83768 c 9.725,4.075 18.225,15.325 20.125,26.65 2.125,12.675 -4.825,27.975 -14.9,32.85 -10.85,5.25 -27.525,4.625 -40.05,-1.525 -11.725,-5.75 -25.55,-13.95 -26.15,-15.525 -1.775,-4.625 0.1,-5.1 22.775,-5.65 22.25,-0.55 27.75,-1.625 27.75,-5.4 0,-3.4 -5,-4.425 -27.075,-5.625 -12.175,-0.675 -22.625,-1.7 -23.2,-2.275 -2.25,-2.25 0.825,-5.025 13.75,-12.425 20.125,-11.55 23.3,-12.75 33.75,-12.775 5,-0.025 10.95,0.75 13.225,1.7 z"
       id="path7501" />
    <path
       style="fill:#ffffff;stroke:none"
       inkscape:connector-curvature="0"
       d="m 370.03214,650.46268 c 9.2,4.375 11.35,17.95 3.975,25.3 -7.225,7.225 -18.5,5.55 -24.675,-3.65 -4.95,-7.4 -1.7,-16.925 7.375,-21.55 5.325,-2.725 7.725,-2.75 13.325,-0.1 z"
       id="path7503" />
    <path
       style="fill:#ffffff;stroke:none"
       inkscape:connector-curvature="0"
       d="m 340.35714,688.18768 c 0,1.125 -1.975,5.7 -4.4,10.175 -16.25,30.075 -17.975,35.2 -12.175,36.025 2.375,0.325 4.625,-2.4 14.75,-17.9 6.575,-10.05 12.275,-19.1 12.65,-20.075 1.025,-2.65 3.875,-2.175 5.55,0.925 1,1.875 1.25,8.675 0.825,22.175 -0.7,21.95 -2.2,27.2 -10.325,36.2 -14.825,16.4 -44.275,11.625 -55.25,-8.925 -3.45,-6.5 -2.875,-17.6 1.4,-26.15 5.175,-10.35 9.6,-15.125 21.1,-22.7 18.95,-12.525 25.875,-15.125 25.875,-9.75 z"
       id="path7505" />
    <path
       style="fill:#ffffff;stroke:none"
       inkscape:connector-curvature="0"
       d="m 404.35714,694.71268 c 8.25,4.875 17.15,10.825 19.8,13.2 21.85,19.75 9.525,55.175 -20.425,58.7 -11.825,1.4 -20.45,-3.35 -28.15,-15.475 -5.5,-8.625 -7.65,-17.6 -8.475,-35.225 -0.625,-13.025 -0.425,-16.1 1.175,-18.175 3,-3.875 5.2,-1.625 16.4,16.625 11.125,18.2 14.475,22.225 17.45,21.1 3.775,-1.45 1.95,-7.575 -8.075,-26.875 -13.75,-26.525 -12.95,-27.625 10.3,-13.875 z"
       id="path7507" />
    <path
       style="fill:#000000;stroke:none"
       inkscape:connector-curvature="0"
       d="m 356.60714,658.36268 c -5.4,5.4 -1.425,15 6.25,15 4.8,0 8.75,-3.95 8.75,-8.75 0,-4.8 -3.95,-8.75 -8.75,-8.75 -2.075,0 -4.85,1.1 -6.25,2.5 z"
       id="path7513" />
  </g>
</svg>
