<?xml version="1.0" encoding="UTF-8"?>
<svg
   xmlns="http://www.w3.org/2000/svg"
   width="168.98056mm"
   height="236.77464mm"
   viewBox="0 0 598.75002 838.96527"
   >
  <defs>
    <linearGradient
       id="tileblue">
      <stop
         style="stop-color:#000040;stop-opacity:1;"
         offset="0"
         id="stop5608" />
    </linearGradient>
  </defs>
  <g
     id="pin2">
    <path
       d="m 154.74219,4.8320312 c 36.63203,-0.00508 84.31406,0.038672 146.50781,0.1074219 l 265,0.2753907 5.80078,2.6757812 c 7.45,3.45 15.57344,11.575391 19.02344,19.025391 l 2.67578,5.798828 0,386.874996 0,386.875 -2.67578,5.80078 c -3.45,7.45002 -11.57344,15.5754 -19.02344,19.0254 l -5.80078,2.67382 -266.875,0 -266.875,0 -5.800781,-2.67382 c -7.45,-3.45 -15.573438,-11.57539 -19.0234378,-19.0254 L 5,806.46484 4.625,423.33984 c -0.275,-276.075 0,-384.924215 1,-389.574215 2.625,-12.275 12,-22.650781 24.375,-26.9257812 4.40625,-1.5375 14.846091,-1.9925782 124.74219,-2.0078126 z M 301.875,0.015625 C 149.6,-0.084375 34.250781,0.31445314 31.550781,0.93945312 19.800781,3.7144531 8.7,12.989844 3.25,24.589844 l -3.25,6.875 0,388.124996 0,388.125 3.25,6.875 c 4.125,8.775 12.35,17 21.125,21.125 l 6.875,3.25 268.125,0 268.125,0 6.875,-3.25 c 8.775,-4.125 17,-12.35 21.125,-21.125 l 3.25,-6.875 0,-388.125 0,-388.124996 -3.25,-6.875 C 591.375,15.814844 583.15,7.5898438 574.375,3.4648438 L 567.5,0.21484375 301.875,0.015625 Z"
       style="fill:#000000;stroke:none"
       id="path6222" />
    <g
       id="g9289">
      <path
         style="fill:url(#tileblue);stroke:none"
         d="M 294.6582 74.927734 C 285.61367 74.950439 277.33203 75.415625 272.17578 76.390625 C 231.50078 84.090625 197.62461 106.49023 173.84961 141.36523 C 157.27461 165.66523 149.375 192.53984 149.375 224.58984 C 149.375 267.33984 163.375 301.09023 193.75 331.49023 C 214.875 352.66523 239.9 366.01445 271.25 372.81445 C 282.625 375.28945 309.59961 375.59102 323.34961 373.41602 C 354.02461 368.51602 382.65 353.78984 405 331.46484 C 435.35 301.16484 449.375 267.33984 449.375 224.58984 C 449.375 192.53984 441.47539 165.66523 424.90039 141.36523 C 403.05039 109.29023 372.12578 87.489453 335.30078 78.189453 C 326.92578 76.080078 309.73242 74.889893 294.6582 74.927734 z M 297.12305 90.142578 C 299.15714 90.128191 301.19922 90.159766 303.25 90.240234 C 311.25 90.540234 321.65 91.615625 326.375 92.640625 C 375.775 103.16563 414.9 139.36563 428.625 187.26562 C 435.7 211.96562 435.75 237.16484 428.75 261.46484 C 402.675 352.18984 294.32461 388.79102 218.72461 332.41602 C 192.04961 312.54102 173.4 282.56484 166.75 248.96484 C 164.5 237.66484 164.525 211.41484 166.75 200.21484 C 179.56172 136.18047 234.06617 90.588567 297.12305 90.142578 z "
         id="path7326" />
      <path
         style="fill:url(#tileblue);stroke:none"
         d="M 297.6582 93.707031 C 296.73378 93.698025 295.80897 93.69987 294.88477 93.714844 C 292.42022 93.754773 289.95744 93.882234 287.5 94.115234 C 229.1344 99.279234 178.02428 147.51394 169.87695 205.58594 C 163.38203 247.92069 179.63358 293.00412 212.11523 321.04688 C 252.28796 360.00462 318.95196 366.34223 366.18945 336.58398 C 408.53868 311.69623 434.76026 261.76923 429.49023 212.70898 C 425.09826 153.91248 375.6196 102.06733 317 95.298828 C 310.60007 94.398781 304.12918 93.770073 297.6582 93.707031 z M 262.22461 122.21484 C 264.82461 122.13984 269.04922 122.96569 271.57422 124.01562 C 280.29922 127.66563 288.27422 137.74063 292.07422 149.89062 C 295.37422 160.49062 296.62422 188.01484 293.94922 191.46484 C 290.94922 195.33984 288.75078 193.08984 277.55078 174.83984 C 266.42578 156.63984 263.07461 152.61523 260.09961 153.74023 C 256.32461 155.19023 258.15078 161.31523 268.17578 180.61523 C 281.92578 207.14023 281.125 208.24023 257.875 194.49023 C 249.625 189.61523 240.72422 183.66602 238.07422 181.29102 C 214.92422 160.36602 230.17461 123.08984 262.22461 122.21484 z M 337.92969 123.69922 C 338.81403 123.69195 339.7125 123.71409 340.625 123.76562 C 345.7 124.04063 350.72539 125.21602 354.02539 126.91602 C 360.25039 130.09102 367.2 136.74102 370.25 142.41602 C 373.7 148.91602 373.12461 160.01445 368.84961 168.56445 C 363.67461 178.91445 359.25 183.69064 347.75 191.26562 C 322.325 208.06563 317.02539 207.96484 326.27539 190.83984 C 342.52539 160.76484 344.24922 155.63945 338.44922 154.81445 C 336.07422 154.48945 333.82422 157.21484 323.69922 172.71484 C 317.12422 182.76484 311.42578 191.81602 311.05078 192.79102 C 310.02578 195.44102 307.175 194.96523 305.5 191.86523 C 304.5 190.01523 304.225 183.11445 304.625 169.68945 C 305.175 151.91445 305.5 149.61445 308.5 143.31445 C 314.59375 130.51758 324.66461 123.80826 337.92969 123.69922 z M 377.84961 192.11523 C 382.84961 192.09023 388.79922 192.86445 391.07422 193.81445 C 400.79922 197.88945 409.29922 209.13984 411.19922 220.46484 C 413.32422 233.13984 406.37578 248.43945 396.30078 253.31445 C 385.45078 258.56445 368.775 257.94102 356.25 251.79102 C 344.525 246.04102 330.69961 237.84063 330.09961 236.26562 C 328.32461 231.64062 330.2 231.16523 352.875 230.61523 C 375.125 230.06523 380.625 228.98984 380.625 225.21484 C 380.625 221.81484 375.62578 220.78984 353.55078 219.58984 C 341.37578 218.91484 330.92461 217.88945 330.34961 217.31445 C 328.09961 215.06445 331.17461 212.29064 344.09961 204.89062 C 364.22461 193.34062 367.39961 192.14023 377.84961 192.11523 z M 220.875 192.20898 C 224.77524 192.26511 228.72656 192.7832 232.5 193.79102 C 239.35 195.61602 242.525 197.09102 257.75 205.54102 C 263.4 208.66602 268.30039 211.96602 268.65039 212.91602 C 270.42539 217.54102 268.55 218.01445 245.875 218.56445 C 223.625 219.11445 218.125 220.18984 218.125 223.96484 C 218.125 227.36484 223.12422 228.38984 245.19922 229.58984 C 257.37422 230.26484 267.82539 231.29023 268.40039 231.86523 C 270.65039 234.11523 267.57539 236.89102 254.65039 244.29102 C 234.52539 255.84102 231.35039 257.03945 220.90039 257.06445 C 210.52539 257.08945 205.55039 255.39102 198.90039 249.54102 C 187.40039 239.44102 184.12578 222.16563 191.05078 208.01562 C 192.97578 204.09062 196.22422 199.68984 198.32422 198.21484 C 203.96172 194.19297 212.29448 192.08552 220.875 192.20898 z M 299.78516 208.47461 C 301.75078 208.45898 303.75078 209.11445 306.55078 210.43945 C 315.75078 214.81445 317.90039 228.39023 310.52539 235.74023 C 303.30039 242.96523 292.02461 241.28984 285.84961 232.08984 C 280.89961 224.68984 284.14961 215.16602 293.22461 210.54102 C 295.88711 209.17852 297.81953 208.49023 299.78516 208.47461 z M 274.69141 245.52148 C 276.19958 245.58405 276.875 246.48633 276.875 248.16602 C 276.875 249.29102 274.89961 253.86484 272.47461 258.33984 C 256.22461 288.41484 254.50078 293.54023 260.30078 294.36523 C 262.67578 294.69023 264.92578 291.96484 275.05078 276.46484 C 281.62578 266.41484 287.32422 257.36563 287.69922 256.39062 C 288.72422 253.74062 291.575 254.21445 293.25 257.31445 C 294.25 259.18945 294.49922 265.99023 294.07422 279.49023 C 293.37422 301.44023 291.875 306.68945 283.75 315.68945 C 268.925 332.08945 239.475 327.31565 228.5 306.76562 C 225.05 300.26562 225.62539 289.16523 229.90039 280.61523 C 235.07539 270.26523 239.5 265.49102 251 257.91602 C 264.02812 249.30508 271.37341 245.38385 274.69141 245.52148 z M 323.125 245.99414 C 325.68973 245.96939 331.42969 249.10352 340.875 254.68945 C 349.125 259.56445 358.02578 265.51562 360.67578 267.89062 C 382.52578 287.64062 370.2 323.06484 340.25 326.58984 C 328.425 327.98984 319.79961 323.24023 312.09961 311.11523 C 306.59961 302.49023 304.45 293.51563 303.625 275.89062 C 303 262.86563 303.20078 259.78984 304.80078 257.71484 C 307.80078 253.83984 309.99922 256.08984 321.19922 274.33984 C 332.32422 292.53984 335.67539 296.56445 338.65039 295.43945 C 342.42539 293.98945 340.59922 287.86445 330.57422 268.56445 C 322.41016 252.81523 319.37655 246.03031 323.125 245.99414 z "
         id="path7334" />
      <path
         d="m 293.125,218.3403 c -5.4,5.4 -1.425,15 6.25,15 4.8,0 8.75,-3.95 8.75,-8.75 0,-4.8 -3.95,-8.75 -8.75,-8.75 -2.075,0 -4.85,1.1 -6.25,2.5 z"
         id="path7354"
         style="fill:url(#tileblue);stroke:none" />
    </g>
    <g
       id="g9329">
      <path
         style="fill:url(#tileblue);stroke:none"
         d="M 294.6582 464.92773 C 285.61367 464.95044 277.33203 465.41563 272.17578 466.39062 C 231.50078 474.09062 197.62461 496.49023 173.84961 531.36523 C 157.27461 555.66523 149.375 582.53984 149.375 614.58984 C 149.375 657.33984 163.375 691.09023 193.75 721.49023 C 214.875 742.66523 239.9 756.01445 271.25 762.81445 C 282.625 765.28945 309.59961 765.59102 323.34961 763.41602 C 354.02461 758.51602 382.65 743.78984 405 721.46484 C 435.35 691.16484 449.375 657.33984 449.375 614.58984 C 449.375 582.53984 441.47539 555.66523 424.90039 531.36523 C 403.05039 499.29023 372.12578 477.48945 335.30078 468.18945 C 326.92578 466.08008 309.73242 464.88989 294.6582 464.92773 z M 297.12305 480.14258 C 299.15714 480.12819 301.19922 480.15977 303.25 480.24023 C 311.25 480.54023 321.65 481.61563 326.375 482.64062 C 375.775 493.16562 414.9 529.36562 428.625 577.26562 C 435.7 601.96563 435.75 627.16484 428.75 651.46484 C 402.675 742.18984 294.32461 778.79102 218.72461 722.41602 C 192.04961 702.54102 173.4 672.56484 166.75 638.96484 C 164.5 627.66484 164.525 601.41484 166.75 590.21484 C 179.56172 526.18047 234.06617 480.58857 297.12305 480.14258 z "
         id="path7360" />
      <path
         style="fill:url(#tileblue);stroke:none"
         d="M 297.05469 483.70312 C 293.65557 483.68183 290.43906 483.81523 287.5 484.11523 C 256.7 487.29023 227.59961 501.38945 206.09961 523.56445 C 163.19961 567.86445 156.35 631.73945 188.875 684.31445 C 197.1 697.58945 217 717.31562 230.625 725.64062 C 282.475 757.39062 346.62539 750.26523 390.40039 707.86523 C 427.40039 672.01523 439.62422 619.23984 422.32422 570.21484 C 409.94922 535.21484 378.7 503.96563 343.75 491.64062 C 329.9375 486.78594 311.78419 483.7954 297.05469 483.70312 z M 262.22461 512.21484 C 264.82461 512.13984 269.04922 512.96564 271.57422 514.01562 C 280.29922 517.66562 288.27422 527.74064 292.07422 539.89062 C 295.37422 550.49063 296.62422 578.01484 293.94922 581.46484 C 290.94922 585.33984 288.75078 583.08984 277.55078 564.83984 C 266.42578 546.63984 263.07461 542.61523 260.09961 543.74023 C 256.32461 545.19023 258.15078 551.31523 268.17578 570.61523 C 281.92578 597.14023 281.125 598.24023 257.875 584.49023 C 249.625 579.61523 240.72422 573.66602 238.07422 571.29102 C 214.92422 550.36602 230.17461 513.08984 262.22461 512.21484 z M 337.92969 513.69922 C 338.81403 513.69195 339.7125 513.71407 340.625 513.76562 C 345.7 514.04062 350.72539 515.21602 354.02539 516.91602 C 360.25039 520.09102 367.2 526.74102 370.25 532.41602 C 373.7 538.91602 373.12461 550.01445 368.84961 558.56445 C 363.67461 568.91445 359.25 573.69065 347.75 581.26562 C 322.325 598.06562 317.02539 597.96484 326.27539 580.83984 C 342.52539 550.76484 344.24922 545.63945 338.44922 544.81445 C 336.07422 544.48945 333.82422 547.21484 323.69922 562.71484 C 317.12422 572.76484 311.42578 581.81602 311.05078 582.79102 C 310.02578 585.44102 307.175 584.96523 305.5 581.86523 C 304.5 580.01523 304.225 573.11445 304.625 559.68945 C 305.175 541.91445 305.5 539.61445 308.5 533.31445 C 314.59375 520.51758 324.66461 513.80826 337.92969 513.69922 z M 377.84961 582.11523 C 382.84961 582.09023 388.79922 582.86445 391.07422 583.81445 C 400.79922 587.88945 409.29922 599.13984 411.19922 610.46484 C 413.32422 623.13984 406.37578 638.43945 396.30078 643.31445 C 385.45078 648.56445 368.775 647.94102 356.25 641.79102 C 344.525 636.04102 330.69961 627.84062 330.09961 626.26562 C 328.32461 621.64062 330.2 621.16523 352.875 620.61523 C 375.125 620.06523 380.625 618.98984 380.625 615.21484 C 380.625 611.81484 375.62578 610.78984 353.55078 609.58984 C 341.37578 608.91484 330.92461 607.88945 330.34961 607.31445 C 328.09961 605.06445 331.17461 602.29063 344.09961 594.89062 C 364.22461 583.34064 367.39961 582.14023 377.84961 582.11523 z M 220.875 582.20898 C 224.77524 582.26511 228.72656 582.7832 232.5 583.79102 C 239.35 585.61602 242.525 587.09102 257.75 595.54102 C 263.4 598.66602 268.30039 601.96602 268.65039 602.91602 C 270.42539 607.54102 268.55 608.01445 245.875 608.56445 C 223.625 609.11445 218.125 610.18984 218.125 613.96484 C 218.125 617.36484 223.12422 618.38984 245.19922 619.58984 C 257.37422 620.26484 267.82539 621.29023 268.40039 621.86523 C 270.65039 624.11523 267.57539 626.89102 254.65039 634.29102 C 234.52539 645.84102 231.35039 647.03945 220.90039 647.06445 C 210.52539 647.08945 205.55039 645.39102 198.90039 639.54102 C 187.40039 629.44102 184.12578 612.16563 191.05078 598.01562 C 192.97578 594.09064 196.22422 589.68984 198.32422 588.21484 C 203.96172 584.19297 212.29448 582.08552 220.875 582.20898 z M 299.78516 598.47461 C 301.75078 598.45898 303.75078 599.11445 306.55078 600.43945 C 315.75078 604.81445 317.90039 618.39023 310.52539 625.74023 C 303.30039 632.96523 292.02461 631.28984 285.84961 622.08984 C 280.89961 614.68984 284.14961 605.16602 293.22461 600.54102 C 295.88711 599.17852 297.81953 598.49023 299.78516 598.47461 z M 274.69141 635.52148 C 276.19958 635.58405 276.875 636.48633 276.875 638.16602 C 276.875 639.29102 274.89961 643.86484 272.47461 648.33984 C 256.22461 678.41484 254.50078 683.54023 260.30078 684.36523 C 262.67578 684.69023 264.92578 681.96484 275.05078 666.46484 C 281.62578 656.41484 287.32422 647.36564 287.69922 646.39062 C 288.72422 643.74063 291.575 644.21445 293.25 647.31445 C 294.25 649.18945 294.49922 655.99023 294.07422 669.49023 C 293.37422 691.44023 291.875 696.68945 283.75 705.68945 C 268.925 722.08945 239.475 717.31562 228.5 696.76562 C 225.05 690.26562 225.62539 679.16523 229.90039 670.61523 C 235.07539 660.26523 239.5 655.49102 251 647.91602 C 264.02812 639.30508 271.37341 635.38385 274.69141 635.52148 z M 323.125 635.99414 C 325.68973 635.96939 331.42969 639.10352 340.875 644.68945 C 349.125 649.56445 358.02578 655.51566 360.67578 657.89062 C 382.52578 677.64062 370.2 713.06484 340.25 716.58984 C 328.425 717.98984 319.79961 713.24023 312.09961 701.11523 C 306.59961 692.49023 304.45 683.51567 303.625 665.89062 C 303 652.86563 303.20078 649.78984 304.80078 647.71484 C 307.80078 643.83984 309.99922 646.08984 321.19922 664.33984 C 332.32422 682.53984 335.67539 686.56445 338.65039 685.43945 C 342.42539 683.98945 340.59922 677.86445 330.57422 658.56445 C 322.41016 642.81523 319.37655 636.03031 323.125 635.99414 z "
         id="path7368" />
      <path
         d="m 293.125,608.3403 c -5.4,5.4 -1.425,15 6.25,15 4.8,0 8.75,-3.95 8.75,-8.75 0,-4.8 -3.95,-8.75 -8.75,-8.75 -2.075,0 -4.85,1.1 -6.25,2.5 z"
         id="path7388"
         style="fill:url(#tileblue);stroke:none" />
    </g>
  </g>
</svg>
