<?xml version="1.0" encoding="UTF-8" standalone="no"?>
<svg
   xmlns:dc="http://purl.org/dc/elements/1.1/"
   xmlns:cc="http://creativecommons.org/ns#"
   xmlns:rdf="http://www.w3.org/1999/02/22-rdf-syntax-ns#"
   xmlns:svg="http://www.w3.org/2000/svg"
   xmlns="http://www.w3.org/2000/svg"
   xmlns:xlink="http://www.w3.org/1999/xlink"
   version="1.1"
   id="svg11402"
   viewBox="0 0 598.75002 838.96456"
   height="236.77444mm"
   width="168.98056mm">
  <defs
     id="defs11404">
    <linearGradient
       id="tileblue">
      <stop
         offset="0"
         style="stop-color:#000040;stop-opacity:1"
         id="stop5608" />
    </linearGradient>
    <linearGradient
       id="tilered">
      <stop
         offset="0"
         style="stop-color:#800000;stop-opacity:1"
         id="stop17363" />
    </linearGradient>
  </defs>
  <g
     transform="translate(-63.4821,-98.594226)"
     id="layer1">
    <g
       id="3pin">
      <path
         style="fill:#000000;stroke:none"
         d="m 365.3571,98.60955 c -152.275,-0.1 -267.6242,0.29875 -270.3242,0.92375 -11.75,2.775 -22.8508,12.0505 -28.3008,23.6505 l -3.25,6.875 0,388.125 0,388.125 3.25,6.875 c 4.125,8.775 12.35,17 21.125,21.125 l 6.875,3.25 268.125,0 268.125,0 6.875,-3.25 c 8.775,-4.125 17,-12.35 21.125,-21.125 l 3.25,-6.875 0,-388.125 0,-388.125 -3.25,-6.875 c -4.125,-8.775 -12.35,-17 -21.125,-21.125 l -6.875,-3.25 -265.625,-0.19925 z m -147.1328,4.8165 c 36.632,-0.01 84.3141,0.039 146.5078,0.10725 l 265,0.2755 5.8008,2.67575 c 7.45,3.45 15.5734,11.5735 19.0234,19.0235 l 2.6758,5.80075 0,386.875 0,386.875 -2.6758,5.80075 c -3.45,7.45 -11.5734,15.5735 -19.0234,19.0235 l -5.8008,2.67575 -266.875,0 -266.875,0 -5.8008,-2.67575 c -7.45,-3.45 -15.5734,-11.5735 -19.0234,-19.0235 l -2.6758,-5.80075 -0.375,-383.125 c -0.275,-276.075 0,-384.92425 1,-389.57425 2.625,-12.275 12,-22.65075 24.375,-26.92575 4.4062,-1.5375 14.8461,-1.9925 124.7422,-2.00775 z"
         id="path7394" />
      <g
         id="g12157">
        <path
           style="fill:url(#tileblue);stroke:none"
           d="m 242.3259,203.38305 c -5.9626,0.013 -11.9188,0.40025 -16.4688,1.15025 -20.175,3.375 -39.825,13.276 -55,27.676 -16.575,15.75 -26.7254,34.39875 -31.0254,57.04875 -10.9,57.575 28.5258,113.125 87.0508,122.625 31.45,5.1 64.2996,-5.24975 87.9746,-27.72475 16.575,-15.75 26.7254,-34.39875 31.0254,-57.04875 10.9,-57.575 -28.5258,-113.125 -87.0508,-122.625 -4.575,-0.75 -10.5433,-1.114 -16.5058,-1.1015 z m -0.3301,13.05675 c 8.3303,-0.108 16.8156,0.9095 25.3867,3.06825 35.25,8.875 60.0992,37.00125 66.8242,75.57625 5,28.7 -8.25,62.675 -32.125,82.375 -29.525,24.35 -68.8004,29.17525 -101.9004,12.52525 -27.8,-14 -43.55,-35.77575 -48.625,-67.17575 -4.95,-30.75 7.6262,-65.025 30.7012,-83.75 18.1664,-14.7165 38.4497,-22.3435 59.7383,-22.619 z"
           id="path7402" />
        <path
           id="path7410"
           d="m 241.861,225.1818 c -2.9203,0.028 -5.8594,0.225 -8.8047,0.6015 -33.525,4.3 -63.275,31.0755 -71.375,64.2755 -2.15,8.775 -1.8242,27.8745 0.6758,37.8495 7.1,28.65 32.6758,54.2755 60.8008,60.9005 9.775,2.3 29.3492,2.3755 38.4492,0.1505 16.575,-4.05 26.95,-10.10125 39.875,-23.20125 16.9,-17.15 24.0504,-34.6485 24.0254,-58.7735 -0.047,-44.48425 -39.8424,-82.2235 -83.6465,-81.80275 z m -0.031,15.709 c 4.8343,-0.025 9.7523,0.50625 14.7773,1.59375 7.875,1.7 20,6.37475 20,7.72475 0,0.375 -4.0754,6.2495 -9.0254,13.0995 -8.775,12.1 -9.1492,12.4245 -12.8242,11.4745 -2.075,-0.525 -7.4254,-0.9745 -11.9004,-0.9745 -4.475,0 -9.8254,0.4495 -11.9004,0.9745 -3.675,0.95 -4.0492,0.62475 -12.9492,-11.65025 -5.025,-6.925 -8.9496,-12.8 -8.7246,-13 2.075,-1.825 12.4484,-6.1 18.2734,-7.5 4.6875,-1.1375 9.4391,-1.71725 14.2735,-1.74225 z m 45.4023,17.09375 6.3242,6.7735 c 3.475,3.725 7.9012,10.10025 9.8262,14.15025 5.7,12.075 8.2992,28.525 6.1992,39.125 -0.425,2.15 -1.3504,3.9005 -2.0254,3.9005 -0.7,0 -7.5996,-2.0255 -15.3496,-4.5255 l -14.0742,-4.5 -0.5254,-7.04875 c -0.5,-6.45 -3.7258,-15.27575 -7.4258,-20.30075 -1.225,-1.675 0.1008,-4.17575 7.8008,-14.80075 l 9.25,-12.7735 z m -88.3301,1.043 c 0.1218,0 0.2153,0.03 0.2793,0.1055 0.45,0.5 4.6512,6.20025 9.3262,12.65025 7.05,9.675 8.2742,12.05 7.0742,13.75 -4.875,6.825 -7.8246,14.47625 -7.9746,20.70125 l -0.1758,6.72475 -14,4.4745 c -7.725,2.475 -14.5996,4.5 -15.3496,4.5 -1.875,0 -3.1504,-10.14925 -2.4004,-19.19925 0.75,-9.2 4.7762,-21.55125 9.3262,-28.70125 4.0781,-6.42175 12.0672,-14.95325 13.8945,-15.00575 z m 42.711,25.40625 c 4.2353,-0.1645 8.5785,0.77225 12.6191,2.9005 9.15,4.825 14.1008,17.30025 11.1758,28.15025 -1.5,5.6 -7.5012,12.17475 -13.4512,14.72475 -9.275,3.975 -22.4996,0.2995 -28.8496,-8.0255 -2.975,-3.925 -3.375,-5.525 -3.375,-14 0,-8.55 0.375,-10.05075 3.5,-14.17575 4.5625,-5.96875 11.322,-9.3 18.3809,-9.57425 z m -31.4551,41.375 c 0.925,-0.075 4.1742,2.625 7.1992,6 3.65,4.05 7.8754,7.125 12.4004,9 l 6.8496,2.82425 0,16 0,15.9765 -4.0508,-0.75 c -15.8,-2.9 -27.1742,-9.2265 -38.6992,-21.4765 -9.4,-10 -13.9,-17.675 -11,-18.75 6.85,-2.575 25.9258,-8.72425 27.3008,-8.82425 z m 64.5234,0.074 c 0.65,-0.1 7.5508,1.90125 15.3008,4.45125 7.775,2.55 14.125,5.09875 14.125,5.67375 0,2.6 -9.075,14.7005 -15.75,21.0255 -10.75,10.15 -21.1508,15.425 -35.1758,17.875 l -4.0742,0.701 0,-16.15025 0,-16.17575 5.3242,-1.57425 c 3.575,-1.075 7.5258,-3.87475 12.1758,-8.59975 3.775,-3.875 7.3992,-7.1015 8.0742,-7.2265 z"
           style="fill:url(#tileblue);stroke:none" />
        <path
           d="m 236.1821,301.7088 c -2.8,3.1 -2.675,10.55 0.2,13.15 1.275,1.15 4.075,2.075 6.25,2.075 7.6,0 11.55,-8.275 7.025,-14.725 -2.5,-3.575 -10.425,-3.85 -13.475,-0.5 z"
           id="path7428"
           style="fill:url(#tileblue);stroke:none" />
      </g>
      <g
         id="g12162">
        <path
           style="fill:url(#tileblue);stroke:none"
           d="m 362.3259,413.38305 c -5.9626,0.013 -11.9188,0.40025 -16.4688,1.15025 -20.175,3.375 -39.825,13.276 -55,27.676 -16.575,15.75 -26.7254,34.39875 -31.0254,57.04875 -10.9,57.575 28.5258,113.125 87.0508,122.625 31.45,5.1 64.2996,-5.24975 87.9746,-27.72475 16.575,-15.75 26.7254,-34.39875 31.0254,-57.04875 10.9,-57.575 -28.5258,-113.125 -87.0508,-122.625 -4.575,-0.75 -10.5433,-1.114 -16.5058,-1.1015 z m -0.3301,13.05675 c 8.3303,-0.108 16.8156,0.9095 25.3867,3.06825 35.25,8.875 60.0992,37.00125 66.8242,75.57625 5,28.7 -8.25,62.675 -32.125,82.375 -29.525,24.35 -68.8004,29.17525 -101.9004,12.52525 -27.8,-14 -43.55,-35.77575 -48.625,-67.17575 -4.95,-30.75 7.6262,-65.025 30.7012,-83.75 18.1664,-14.7165 38.4497,-22.3435 59.7383,-22.619 z"
           id="path7434" />
        <path
           id="path7442"
           d="m 362.5563,435.4378 c -3.0317,-0.01 -6.0918,0.14725 -9.1738,0.4705 -17.975,1.875 -34.4758,10.126 -48.5508,24.301 -9.95,10 -15.8238,19.02375 -20.4238,31.42375 -4.3,11.55 -5.3262,32.65025 -2.2012,45.65025 5.575,23.225 23.2504,44.72475 46.2754,56.22475 22.075,11.05 56.1246,9.02625 77.3496,-4.54875 8.4,-5.375 22.4258,-19.401 27.8008,-27.801 2.3,-3.575 5.725,-10.924 7.625,-16.324 3.125,-8.825 3.4742,-11.4005 3.4492,-26.6505 0,-19.1 -1.95,-26.825 -10.25,-40.625 -16.0406,-26.6665 -42.594,-42.04075 -71.9004,-42.121 z m -1.5097,15.662 c 8.2429,0 17.2207,1.32425 24.3613,3.8085 5,1.725 9.6234,3.69975 10.2734,4.34975 0.775,0.775 -2.0742,5.7515 -7.9492,13.8515 -8.925,12.3 -9.2996,12.62375 -12.9746,11.67375 -4.875,-1.25 -18.9246,-1.25 -23.8496,0 -3.7,0.975 -4.0262,0.675 -12.9512,-11.625 -5.025,-6.925 -8.9238,-12.80025 -8.6738,-13.02525 2,-1.775 12.4234,-6.09925 18.2734,-7.57425 3.8625,-0.9845 8.5445,-1.46 13.4903,-1.459 z m 46.1601,16.834 6.4512,6.92575 c 3.55,3.8 7.8992,9.9985 9.6992,13.7735 1.775,3.775 4.0746,10.42525 5.0996,14.77525 2.85,12.05 2.325,28.5255 -0.875,28.5255 -0.7,0 -7.5742,-1.9755 -15.3242,-4.4005 l -14.0508,-4.375 -0.6504,-7.17375 c -0.65,-7.2 -2.6992,-13.0765 -6.6992,-19.2265 -2.15,-3.275 -2.1504,-3.29875 7.0996,-16.04875 l 9.25,-12.7755 z m -88.834,1.1035 c 0.6274,-0.065 1.0742,0.405 1.6836,1.22075 0.975,1.25 5.1766,7.02525 9.3516,12.77525 6.325,8.725 7.35,10.825 6.125,12.5 -4.25,5.775 -7.825,15.47625 -7.875,21.32625 l -0.051,6.25 -14.0996,4.42375 c -7.775,2.425 -14.675,4.4005 -15.375,4.4005 -3.275,0 -3.7504,-17.72425 -0.7754,-29.19925 2.85,-11.05 7.7258,-20.30025 14.8008,-28.02525 3.625,-3.969 5.1692,-5.56425 6.2148,-5.672 z m 43.2403,25.3965 c 4.2353,-0.1645 8.5785,0.77225 12.6191,2.9005 10.425,5.5 15.225,20.4495 10,31.2245 -7.65,15.8 -30.325,17.775 -41.125,3.625 -2.975,-3.925 -3.375,-5.525 -3.375,-14 0,-8.55 0.375,-10.05075 3.5,-14.17575 4.5625,-5.96875 11.322,-9.3 18.3809,-9.57425 z m -31.4551,41.375 c 0.925,-0.075 4.1742,2.625 7.1992,6 3.65,4.05 7.8754,7.125 12.4004,9 l 6.8496,2.82425 0,16.02525 c 0,8.825 -0.4258,15.99975 -0.9258,15.97475 -3.45,-0.15 -15.8746,-3.9235 -21.9746,-6.6485 -11.175,-4.975 -32.0996,-26.4015 -32.0996,-32.8515 0,-1.375 23.8008,-9.97425 28.5508,-10.32425 z m 64.375,0 c 0.575,-0.075 7.4742,1.9 15.3242,4.375 7.825,2.45 14.25,5.02575 14.25,5.67575 0,2.3 -8.425,14.24875 -13.875,19.67375 -10.45,10.425 -22.8508,16.9 -37.0508,19.375 l -4.0742,0.70125 0,-15.9765 0,-16 6.7754,-2.79875 c 4.4,-1.825 8.6488,-4.89975 12.1738,-8.84975 2.975,-3.325 5.9016,-6.10075 6.4766,-6.17575 z"
           style="fill:url(#tilered);stroke:none" />
        <path
           d="m 356.1821,511.7088 c -3.1,3.425 -2.7,10.9 0.7,13.275 6.35,4.45 14.725,0.575 14.725,-6.8 0,-2.075 -1.1,-4.85 -2.5,-6.25 -3.2,-3.2 -10.125,-3.3 -12.925,-0.225 z"
           id="path7460"
           style="fill:url(#tilered);stroke:none" />
      </g>
      <g
         id="g12152">
        <path
           style="fill:url(#tileblue);stroke:none"
           d="m 482.3259,623.38305 c -5.9626,0.013 -11.9188,0.40025 -16.4688,1.15025 -20.175,3.375 -39.825,13.276 -55,27.676 -16.575,15.75 -26.7254,34.39875 -31.0254,57.04875 -10.9,57.575 28.5258,113.125 87.0508,122.625 31.45,5.1 64.2996,-5.24975 87.9746,-27.72475 16.575,-15.75 26.7254,-34.39875 31.0254,-57.04875 10.9,-57.575 -28.5258,-113.125 -87.0508,-122.625 -4.575,-0.75 -10.5433,-1.114 -16.5058,-1.1015 z m -0.3301,13.05675 c 8.3303,-0.108 16.8156,0.9095 25.3867,3.06825 35.25,8.875 60.0992,37.00125 66.8242,75.57625 5,28.7 -8.25,62.675 -32.125,82.375 -29.525,24.35 -68.8004,29.17525 -101.9004,12.52525 -27.8,-14 -43.55,-35.77575 -48.625,-67.17575 -4.95,-30.75 7.6262,-65.025 30.7012,-83.75 18.1664,-14.7165 38.4497,-22.3435 59.7383,-22.619 z"
           id="path7466" />
        <path
           id="path7474"
           d="m 481.861,645.1818 c -2.9203,0.028 -5.8594,0.225 -8.8047,0.6015 -33.525,4.3 -63.275,31.0755 -71.375,64.2755 -2.15,8.775 -1.8242,27.8745 0.6758,37.8495 7.1,28.65 32.6758,54.2755 60.8008,60.9005 9.775,2.3 29.3492,2.3755 38.4492,0.1505 16.575,-4.05 26.95,-10.10125 39.875,-23.20125 16.9,-17.15 24.0504,-34.6485 24.0254,-58.7735 -0.047,-44.48425 -39.8424,-82.2235 -83.6465,-81.80275 z m -0.031,15.709 c 4.8343,-0.025 9.7523,0.50625 14.7773,1.59375 7.875,1.7 20,6.37475 20,7.72475 0,0.375 -4.0754,6.2495 -9.0254,13.0995 -8.775,12.1 -9.1492,12.4245 -12.8242,11.4745 -2.075,-0.525 -7.4254,-0.9745 -11.9004,-0.9745 -4.475,0 -9.8254,0.4495 -11.9004,0.9745 -3.675,0.95 -4.0492,0.62475 -12.9492,-11.65025 -5.025,-6.925 -8.9496,-12.8 -8.7246,-13 2.075,-1.825 12.4484,-6.1 18.2734,-7.5 4.6875,-1.1375 9.4391,-1.71725 14.2735,-1.74225 z m 45.4023,17.09375 6.3242,6.7735 c 3.475,3.725 7.9012,10.10025 9.8262,14.15025 5.7,12.075 8.2992,28.525 6.1992,39.125 -0.425,2.15 -1.3504,3.9005 -2.0254,3.9005 -0.7,0 -7.5996,-2.0255 -15.3496,-4.5255 l -14.0742,-4.5 -0.5254,-7.04875 c -0.5,-6.45 -3.7258,-15.27575 -7.4258,-20.30075 -1.225,-1.675 0.1008,-4.17575 7.8008,-14.80075 l 9.25,-12.7735 z m -88.3301,1.043 c 0.1218,0 0.2153,0.03 0.2793,0.1055 0.45,0.5 4.6512,6.20025 9.3262,12.65025 7.05,9.675 8.2742,12.05 7.0742,13.75 -4.875,6.825 -7.8246,14.47625 -7.9746,20.70125 l -0.1758,6.72475 -14,4.4745 c -7.725,2.475 -14.5996,4.5 -15.3496,4.5 -1.875,0 -3.1504,-10.14925 -2.4004,-19.19925 0.75,-9.2 4.7762,-21.55125 9.3262,-28.70125 4.0781,-6.42175 12.0672,-14.95325 13.8945,-15.00575 z m 42.711,25.40625 c 4.2353,-0.1645 8.5785,0.77225 12.6191,2.9005 9.15,4.825 14.1008,17.30025 11.1758,28.15025 -1.5,5.6 -7.5012,12.17475 -13.4512,14.72475 -9.275,3.975 -22.4996,0.2995 -28.8496,-8.0255 -2.975,-3.925 -3.375,-5.525 -3.375,-14 0,-8.55 0.375,-10.05075 3.5,-14.17575 4.5625,-5.96875 11.322,-9.3 18.3809,-9.57425 z m -31.4551,41.375 c 0.925,-0.075 4.1742,2.625 7.1992,6 3.65,4.05 7.8754,7.125 12.4004,9 l 6.8496,2.82425 0,16 0,15.9765 -4.0508,-0.75 c -15.8,-2.9 -27.1742,-9.2265 -38.6992,-21.4765 -9.4,-10 -13.9,-17.675 -11,-18.75 6.85,-2.575 25.9258,-8.72425 27.3008,-8.82425 z m 64.5234,0.074 c 0.65,-0.1 7.5508,1.90125 15.3008,4.45125 7.775,2.55 14.125,5.09875 14.125,5.67375 0,2.6 -9.075,14.7005 -15.75,21.0255 -10.75,10.15 -21.1508,15.425 -35.1758,17.875 l -4.0742,0.701 0,-16.15025 0,-16.17575 5.3242,-1.57425 c 3.575,-1.075 7.5258,-3.87475 12.1758,-8.59975 3.775,-3.875 7.3992,-7.1015 8.0742,-7.2265 z"
           style="fill:url(#tileblue);stroke:none" />
        <path
           d="m 476.1821,721.7088 c -2.8,3.1 -2.675,10.55 0.2,13.15 1.275,1.15 4.075,2.075 6.25,2.075 7.6,0 11.55,-8.275 7.025,-14.725 -2.5,-3.575 -10.425,-3.85 -13.475,-0.5 z"
           id="path7492"
           style="fill:url(#tileblue);stroke:none" />
      </g>
    </g>
  </g>
</svg>
