<?xml version="1.0" encoding="UTF-8" standalone="no"?>
<svg
   xmlns:osb="http://www.openswatchbook.org/uri/2009/osb"
   xmlns:dc="http://purl.org/dc/elements/1.1/"
   xmlns:cc="http://creativecommons.org/ns#"
   xmlns:rdf="http://www.w3.org/1999/02/22-rdf-syntax-ns#"
   xmlns:svg="http://www.w3.org/2000/svg"
   xmlns="http://www.w3.org/2000/svg"
   width="598.75"
   height="838.96527"
   id="svg4880"
   version="1.1">
  <defs
     id="defs4882">
    <linearGradient
       id="tilegreen"
       osb:paint="solid">
      <stop
         style="stop-color:#004000;stop-opacity:1;"
         offset="0"
         id="stop17331" />
    </linearGradient>
    <linearGradient
       id="tilered"
       osb:paint="solid">
      <stop
         style="stop-color:#800000;stop-opacity:1;"
         offset="0"
         id="stop17363" />
    </linearGradient>
  </defs>
  <metadata
     id="metadata4885">
    <rdf:RDF>
      <cc:Work
         rdf:about="">
        <dc:format>image/svg+xml</dc:format>
        <dc:type
           rdf:resource="http://purl.org/dc/dcmitype/StillImage" />
        <dc:title></dc:title>
      </cc:Work>
    </rdf:RDF>
  </metadata>
  <g
     transform="translate(-2.9107115,-0.87953869)"
     id="layer1">
    <path
       id="path9024"
       style="fill:#000000;fill-opacity:1;stroke:none"
       d="m 574.96072,8.769826 c 7.45,3.45 15.575,11.575 19.025,19.025 l 2.675,5.8 0,386.875004 0,386.875 -2.675,5.8 c -3.45,7.45 -11.575,15.575 -19.025,19.025 l -5.8,2.675 -266.87501,0 -266.875001,0 -5.8,-2.675 c -7.45,-3.45 -15.574997,-11.575 -19.024997,-19.025 l -2.6750005,-5.8 -0.375,-383.125 c -0.275,-276.075 0,-384.925004 1.0000005,-389.575004 2.625,-12.275 11.999997,-22.65 24.374997,-26.9250003 5.875,-2.05 22.475,-2.175 271.250001,-1.9 l 265.00001,0.275 5.8,2.6750003 z M 34.460709,1.8198257 c -11.75,2.775 -22.849997,12.0500003 -28.2999975,23.6500003 l -3.25,6.875 0,388.125004 0,388.125 3.25,6.875 c 4.1250005,8.775 12.3499975,17 21.1249975,21.125 l 6.875,3.25 268.125001,0 268.12501,0 6.875,-3.25 c 8.775,-4.125 17,-12.35 21.125,-21.125 l 3.25,-6.875 0,-388.125 0,-388.125004 -3.25,-6.875 c -4.125,-8.775 -12.35,-17 -21.125,-21.1250003 l -6.875,-3.25 -265.62501,-0.2 c -152.275,-0.1 -267.625001,0.3 -270.325001,0.925 z" />
    <path
       d="m 118.28571,60.813626 c -5.6656,0.073 -11.1062,0.5499 -15.9375,1.4687 -22.225001,4.225 -38.237501,13.5937 -40.812501,23.8437 -1.825,7.3253 4.275,15.512604 14.875,19.937604 l 4.625,1.9374 0,51.25 0,51.25 -8,7.8126 c -6.375,6.275 -8.4,9.2187 -10,14.5937 -1.1,3.725 -2,8.5063 -2,10.6563 0,6.625 5.5187,15.7812 13.0938,21.6562 l 6.9062,5.4062 0,50.2813 0,50.2813 -6.5625,4.4062 c -8.525,5.75 -12.475,12.3625 -11.75,19.6875 0.7,6.925 3.85,11.2938 10.875,14.9687 6.25,3.2753 14.3625,3.1063 21.0625,-0.3437 5.475001,-2.85 49.775001,-2.85 55.250001,0 6.7,3.45 14.8125,3.6187 21.0625,0.3437 7.65,-4 10.6875,-8.5562 10.6875,-15.9062 0,-7.025 -4.0625,-13.1812 -12.6875,-19.2812 l -5.4375,-3.8126 0,-50.25 0,-50.2187 6.7188,-5.0937 c 9.6496,-7.2754 12.6312,-12.6438 12.6562,-22.7188 0,-10.475 -3.8625,-18.3375 -12.8125,-26.0625 l -6.5625,-5.6563 0,-51.625 0,-51.625 4.625,-1.9374 c 20.6,-8.600004 19.6875,-25.356304 -1.9375,-36.156304 -11.7937,-5.8875 -30.9406,-9.3129 -47.9375,-9.0937 z m 2.5312,18.5624 c 3.5924,-0.1215 7.375,0.5969 10.9376,2.2188 8.625,3.9 12.0187,16.1625 6.2187,22.562504 -1.675,1.825 -1.9375,8.6375 -1.9375,50.3125 0,43.3 -0.1875,48.3813 -2.0625,49.9062 -1.35,1.125 -5.3625,1.7188 -11.6875,1.7188 -6.3,0 -10.3375,-0.5938 -11.6875,-1.7188 -1.875,-1.5246 -2.0625,-6.5562 -2.0625,-49.9062 0,-44.125 -0.1875,-48.3687 -2.1875,-50.5938 -2.875,-3.1496 -2.775,-12.868704 0.125,-17.343704 2.9063,-4.4219 8.3564,-6.9531 14.3437,-7.1563 z m -1.25,140.125004 c 6.8462,-0.094 14.8532,1.1315 17.5,3.125 6.2753,4.6751 4.3188,9.1376 -5.1562,11.6876 -6.075,1.65 -18.7125,0.8937 -23.6875,-1.4063 -6.825,-3.175 -5.0313,-9.8312 3.3437,-12.4063 2.0315,-0.6327 4.8884,-0.957 8,-1 z m 0,28.75 c 6.8406,-0.096 14.836,1.1172 17.5,3.0938 8.725,6.5 2.1688,12.1688 -14.1562,12.2188 -11.025,0.025 -17.5875,-1.9875 -18.8125,-5.8126 -0.975,-3.125 2.3439,-6.9248 7.4687,-8.5 2.0314,-0.6327 4.8909,-0.9564 8,-1 z m 1.3438,27.7188 c 4.7717,-0.092 10.0312,0.5937 12.5312,1.9375 2.5751,1.375 2.5938,1.9625 2.5938,53.8125 l 0,52.4062 -2.8125,1.5626 c -3.65,2.05 -18.225,2.05 -21.875,0 l -2.8437,-1.5626 0.3437,-52.7812 0.3125,-52.75 4.375,-1.5625 c 1.8281,-0.6563 4.512,-1.0074 7.375,-1.0625 z"
       id="path9030"
       style="fill:url(#tilegreen);fill-opacity:1" />
    <path
       d="m 478.28571,60.813626 c -5.6656,0.073 -11.1062,0.5499 -15.9375,1.4687 -22.225,4.225 -38.2375,13.5937 -40.8125,23.8437 -1.825,7.3253 4.275,15.512604 14.875,19.937604 l 4.625,1.9374 0,51.25 0,51.25 -8,7.8126 c -6.375,6.275 -8.4,9.2187 -10,14.5937 -1.1,3.725 -2,8.5063 -2,10.6563 0,6.625 5.5187,15.7812 13.0938,21.6562 l 6.9062,5.4062 0,50.2813 0,50.2813 -6.5625,4.4062 c -8.525,5.75 -12.475,12.3625 -11.75,19.6875 0.7,6.925 3.85,11.2938 10.875,14.9687 6.25,3.2753 14.3625,3.1063 21.0625,-0.3437 5.475,-2.85 49.77501,-2.85 55.25001,0 6.7,3.45 14.8125,3.6187 21.0625,0.3437 7.65,-4 10.6875,-8.5562 10.6875,-15.9062 0,-7.025 -4.0625,-13.1812 -12.6875,-19.2812 l -5.4375,-3.8126 0,-50.25 0,-50.2187 6.7188,-5.0937 c 9.6496,-7.2754 12.6312,-12.6438 12.6562,-22.7188 0,-10.475 -3.8625,-18.3375 -12.8125,-26.0625 l -6.5625,-5.6563 0,-51.625 0,-51.625 4.625,-1.9374 c 20.6,-8.600004 19.6875,-25.356304 -1.9375,-36.156304 -11.7937,-5.8875 -30.9406,-9.3129 -47.93751,-9.0937 z m 2.53121,18.5624 c 3.5924,-0.1215 7.375,0.5969 10.9376,2.2188 8.625,3.9 12.0187,16.1625 6.2187,22.562504 -1.675,1.825 -1.9375,8.6375 -1.9375,50.3125 0,43.3 -0.1875,48.3813 -2.0625,49.9062 -1.35,1.125 -5.3625,1.7188 -11.6875,1.7188 -6.30001,0 -10.33751,-0.5938 -11.68751,-1.7188 -1.875,-1.5246 -2.0625,-6.5562 -2.0625,-49.9062 0,-44.125 -0.1875,-48.3687 -2.1875,-50.5938 -2.875,-3.1496 -2.775,-12.868704 0.125,-17.343704 2.9063,-4.4219 8.3564,-6.9531 14.34371,-7.1563 z m -1.25,140.125004 c 6.8462,-0.094 14.8532,1.1315 17.5,3.125 6.2753,4.6751 4.3188,9.1376 -5.1562,11.6876 -6.075,1.65 -18.71251,0.8937 -23.68751,-1.4063 -6.825,-3.175 -5.0313,-9.8312 3.3437,-12.4063 2.0315,-0.6327 4.8884,-0.957 8.00001,-1 z m 0,28.75 c 6.8406,-0.096 14.836,1.1172 17.5,3.0938 8.725,6.5 2.1688,12.1688 -14.1562,12.2188 -11.02501,0.025 -17.58751,-1.9875 -18.81251,-5.8126 -0.975,-3.125 2.3439,-6.9248 7.4687,-8.5 2.0314,-0.6327 4.8909,-0.9564 8.00001,-1 z m 1.3438,27.7188 c 4.7717,-0.092 10.0312,0.5937 12.5312,1.9375 2.5751,1.375 2.5938,1.9625 2.5938,53.8125 l 0,52.4062 -2.8125,1.5626 c -3.65,2.05 -18.22501,2.05 -21.87501,0 l -2.8437,-1.5626 0.3437,-52.7812 0.3125,-52.75 4.375,-1.5625 c 1.8281,-0.6563 4.512,-1.0074 7.37501,-1.0625 z"
       id="path9044"
       style="fill:url(#tilegreen);fill-opacity:1" />
    <path
       d="m 300.84821,240.78233 c -5.2048,0.013 -10.3828,0.3625 -15.375,1.0937 -41.925,6.1004 -58.8125,31.7626 -29.0625,44.1876 l 4.625,1.9374 0,51.3438 0,51.3438 -8,7.75 c -6.7,6.4499 -8.3813,8.9624 -10.1562,15.0624 -4.0753,14 1.0437,25.8813 14.7187,34.1563 l 3.4375,2.125 0,50.6875 0,50.7188 -6.5625,4.375 c -15.475,10.275 -15.6875,28.1062 -0.4375,35.0312 6.575,2.975 10.4625,2.95 18.5625,-0.125 5.725,-2.175 9.5875,-2.5 29.6875,-2.5 20.1,0 23.9625,0.325 29.6875,2.5 8.1,3.075 11.9875,3.1 18.5625,0.125 11.15,-5.075 14.65,-17.5875 7.5,-26.9375 -1.975,-2.625 -6.0625,-6.4687 -9.0625,-8.5937 l -5.4375,-3.8126 0,-50.25 0,-50.2187 6.8438,-5.3125 c 9.7997,-7.55 12.5248,-12.45 12.5,-22.5 -0.025,-10.5 -3.8813,-18.3375 -12.7813,-25.9375 l -6.5625,-5.625 0,-51.6875 0,-51.7188 4.625,-1.9374 c 15.775,-6.6 19.5125,-18.8254 8.8125,-29 -10.5219,-9.9939 -33.5707,-16.3384 -56.125,-16.2813 z m 1.4375,18.4375 c 3.125,0 7.5875,1.0312 9.9375,2.2812 4.7,2.5254 8.8125,9.0688 8.8125,13.9688 0,1.75 -1.125,5.2375 -2.5,7.8125 -2.375,4.425 -2.5,7.0562 -2.5,52.0313 0,42.525 -0.1875,47.5374 -2.0625,49.0624 -1.35,1.125 -5.3625,1.7188 -11.6875,1.7188 -6.325,0 -10.3375,-0.5938 -11.6875,-1.7188 -1.875,-1.525 -2.0625,-6.6062 -2.0625,-49.9062 0,-42.225 -0.2437,-48.45 -1.9688,-50.375 -1.0996,-1.2 -2.2687,-4.3186 -2.5937,-6.9688 -1.225,-9.7997 7.0875,-17.9062 18.3125,-17.9062 z m -2.625,140.25 c 6.761,-0.059 14.7766,1.1969 17.4062,3.1562 4.0753,3.0252 4.7438,5.6313 2.0938,8.2813 -7.05,7.05 -35.625,4.8437 -35.625,-2.7813 0,-2.8249 3.6375,-6.2187 8.3125,-7.7187 1.9297,-0.6172 4.7393,-0.9107 7.8125,-0.9375 z m 1.125,28.8438 c 1.1352,-0.014 2.3469,-0.01 3.625,0.031 6.85,0.225 9.825,0.9062 12.5,2.9062 8.875,6.6 2.45,12.2626 -14,12.3126 -15.325,0.05 -22.9062,-4.6125 -17.4062,-10.6876 2.778,-3.0842 7.3351,-4.4664 15.2812,-4.5624 z m 0.125,27.6562 c 4.7717,-0.092 10.0312,0.5937 12.5312,1.9375 2.5751,1.375 2.5938,1.9563 2.5938,53.9063 l 0,52.5312 -4.6875,1.9375 c -5.1,2.125 -15.5437,1.75 -20.2187,-0.75 -2.6001,-1.4 -2.6063,-1.7125 -2.2813,-54.1875 l 0.3125,-52.75 4.375,-1.5625 c 1.8281,-0.6563 4.512,-1.0074 7.375,-1.0625 z"
       id="path9058"
       style="fill:url(#tilered);fill-opacity:1" />
    <path
       d="m 118.28571,420.81363 c -5.6656,0.073 -11.1062,0.55 -15.9375,1.4687 -22.225001,4.225 -38.237501,13.5937 -40.812501,23.8437 -1.825,7.3253 4.275,15.5126 14.875,19.9376 l 4.625,1.9374 0,51.25 0,51.25 -8,7.8126 c -6.375,6.275 -8.4,9.2187 -10,14.5937 -1.1,3.725 -2,8.5063 -2,10.6563 0,6.625 5.5187,15.7812 13.0938,21.6562 l 6.9062,5.4062 0,50.2813 0,50.2813 -6.5625,4.4062 c -8.525,5.75 -12.475,12.3625 -11.75,19.6875 0.7,6.925 3.85,11.2938 10.875,14.9687 6.25,3.2754 14.3625,3.1063 21.0625,-0.3437 5.475001,-2.85 49.775001,-2.85 55.250001,0 6.7,3.45 14.8125,3.6187 21.0625,0.3437 7.65,-4 10.6875,-8.5562 10.6875,-15.9062 0,-7.025 -4.0625,-13.1812 -12.6875,-19.2812 l -5.4375,-3.8126 0,-50.25 0,-50.2187 6.7188,-5.0937 c 9.6496,-7.2754 12.6312,-12.6438 12.6562,-22.7188 0,-10.475 -3.8625,-18.3375 -12.8125,-26.0625 l -6.5625,-5.6563 0,-51.625 0,-51.625 4.625,-1.9374 c 20.6,-8.6 19.6875,-25.3563 -1.9375,-36.1563 -11.7937,-5.8875 -30.9406,-9.3129 -47.9375,-9.0937 z m 2.5312,18.5624 c 3.5924,-0.1215 7.375,0.5969 10.9376,2.2188 8.625,3.9 12.0187,16.1625 6.2187,22.5625 -1.675,1.825 -1.9375,8.6375 -1.9375,50.3125 0,43.3 -0.1875,48.3813 -2.0625,49.9062 -1.35,1.125 -5.3625,1.7188 -11.6875,1.7188 -6.3,0 -10.3375,-0.5938 -11.6875,-1.7188 -1.875,-1.525 -2.0625,-6.5562 -2.0625,-49.9062 0,-44.125 -0.1875,-48.3687 -2.1875,-50.5938 -2.875,-3.15 -2.775,-12.8687 0.125,-17.3437 2.9063,-4.4219 8.3564,-6.9531 14.3437,-7.1563 z m -1.25,140.125 c 6.8462,-0.094 14.8532,1.1315 17.5,3.125 6.2753,4.6751 4.3188,9.1376 -5.1562,11.6876 -6.075,1.65 -18.7125,0.8937 -23.6875,-1.4063 -6.825,-3.175 -5.0313,-9.8312 3.3437,-12.4063 2.0315,-0.6327 4.8884,-0.957 8,-1 z m 0,28.75 c 6.8406,-0.096 14.836,1.1172 17.5,3.0938 8.725,6.5 2.1688,12.1688 -14.1562,12.2188 -11.025,0.025 -17.5875,-1.9875 -18.8125,-5.8126 -0.975,-3.125 2.3439,-6.9249 7.4687,-8.5 2.0314,-0.6327 4.8909,-0.9564 8,-1 z m 1.3438,27.7188 c 4.7717,-0.092 10.0312,0.5937 12.5312,1.9375 2.5751,1.375 2.5938,1.9625 2.5938,53.8125 l 0,52.4062 -2.8125,1.5626 c -3.65,2.05 -18.225,2.05 -21.875,0 l -2.8437,-1.5626 0.3437,-52.7812 0.3125,-52.75 4.375,-1.5625 c 1.8281,-0.6563 4.512,-1.0074 7.375,-1.0625 z"
       id="path9072"
       style="fill:url(#tilegreen);fill-opacity:1" />
    <path
       d="m 478.28571,420.81363 c -5.6656,0.073 -11.1062,0.55 -15.9375,1.4687 -22.225,4.225 -38.2375,13.5937 -40.8125,23.8437 -1.825,7.3253 4.275,15.5126 14.875,19.9376 l 4.625,1.9374 0,51.25 0,51.25 -8,7.8126 c -6.375,6.275 -8.4,9.2187 -10,14.5937 -1.1,3.725 -2,8.5063 -2,10.6563 0,6.625 5.5187,15.7812 13.0938,21.6562 l 6.9062,5.4062 0,50.2813 0,50.2813 -6.5625,4.4062 c -8.525,5.75 -12.475,12.3625 -11.75,19.6875 0.7,6.925 3.85,11.2938 10.875,14.9687 6.25,3.2754 14.3625,3.1063 21.0625,-0.3437 5.475,-2.85 49.77501,-2.85 55.25001,0 6.7,3.45 14.8125,3.6187 21.0625,0.3437 7.65,-4 10.6875,-8.5562 10.6875,-15.9062 0,-7.025 -4.0625,-13.1812 -12.6875,-19.2812 l -5.4375,-3.8126 0,-50.25 0,-50.2187 6.7188,-5.0937 c 9.6496,-7.2754 12.6312,-12.6438 12.6562,-22.7188 0,-10.475 -3.8625,-18.3375 -12.8125,-26.0625 l -6.5625,-5.6563 0,-51.625 0,-51.625 4.625,-1.9374 c 20.6,-8.6 19.6875,-25.3563 -1.9375,-36.1563 -11.7937,-5.8875 -30.9406,-9.3129 -47.93751,-9.0937 z m 2.53121,18.5624 c 3.5924,-0.1215 7.375,0.5969 10.9376,2.2188 8.625,3.9 12.0187,16.1625 6.2187,22.5625 -1.675,1.825 -1.9375,8.6375 -1.9375,50.3125 0,43.3 -0.1875,48.3813 -2.0625,49.9062 -1.35,1.125 -5.3625,1.7188 -11.6875,1.7188 -6.30001,0 -10.33751,-0.5938 -11.68751,-1.7188 -1.875,-1.525 -2.0625,-6.5562 -2.0625,-49.9062 0,-44.125 -0.1875,-48.3687 -2.1875,-50.5938 -2.875,-3.15 -2.775,-12.8687 0.125,-17.3437 2.9063,-4.4219 8.3564,-6.9531 14.34371,-7.1563 z m -1.25,140.125 c 6.8462,-0.094 14.8532,1.1315 17.5,3.125 6.2753,4.6751 4.3188,9.1376 -5.1562,11.6876 -6.075,1.65 -18.71251,0.8937 -23.68751,-1.4063 -6.825,-3.175 -5.0313,-9.8312 3.3437,-12.4063 2.0315,-0.6327 4.8884,-0.957 8.00001,-1 z m 0,28.75 c 6.8406,-0.096 14.836,1.1172 17.5,3.0938 8.725,6.5 2.1688,12.1688 -14.1562,12.2188 -11.02501,0.025 -17.58751,-1.9875 -18.81251,-5.8126 -0.975,-3.125 2.3439,-6.9249 7.4687,-8.5 2.0314,-0.6327 4.8909,-0.9564 8.00001,-1 z m 1.3438,27.7188 c 4.7717,-0.092 10.0312,0.5937 12.5312,1.9375 2.5751,1.375 2.5938,1.9625 2.5938,53.8125 l 0,52.4062 -2.8125,1.5626 c -3.65,2.05 -18.22501,2.05 -21.87501,0 l -2.8437,-1.5626 0.3437,-52.7812 0.3125,-52.75 4.375,-1.5625 c 1.8281,-0.6563 4.512,-1.0074 7.37501,-1.0625 z"
       id="path9086"
       style="fill:url(#tilegreen);fill-opacity:1" />
  </g>
</svg>
