<?xml version="1.0" encoding="UTF-8" standalone="no"?>
<svg
   xmlns="http://www.w3.org/2000/svg"
   xmlns:svg="http://www.w3.org/2000/svg"
   xmlns:xlink="http://www.w3.org/1999/xlink"
   version="1.1"
   viewBox="0 0 598.75002 838.96527"
   height="236.77464mm"
   width="168.98056mm">
  <defs>
    <g
       id="ton"
       transform="matrix(0.025,0,0,-0.025,-100.625,1879.5903)">
      <path
         id="path9506"
         style="fill:#000000;fill-opacity:1;stroke:none"
         d="m 26907,74868 c 298,-138 623,-463 761,-761 l 107,-232 0,-15475 0,-15475 -107,-232 c -138,-298 -463,-623 -761,-761 l -232,-107 -10675,0 -10675,0 -232,107 c -298,138 -623,463 -761,761 l -107,232 -15,15325 c -11,11043 0,15397 40,15583 105,491 480,906 975,1077 235,82 899,87 10850,76 l 10600,-11 232,-107 z m -21620,278 c -470,-111 -914,-482 -1132,-946 l -130,-275 0,-15525 0,-15525 130,-275 c 165,-351 494,-680 845,-845 l 275,-130 10725,0 10725,0 275,130 c 351,165 680,494 845,845 l 130,275 0,15525 0,15525 -130,275 c -165,351 -494,680 -845,845 l -275,130 -10625,8 c -6091,4 -10705,-12 -10813,-37 z" />
      <path
         d="m 13250,70122.5 c 0,-7 66.5,-273.5 147.5,-592.5 114,-452 212.25,-702.5 446.25,-1127.5 661,-1202 1156.25,-2622.5 1156.25,-3322.5 0,-204 -9.5,-217 -187.5,-270 -104,-31 -520.75,-112.5 -928.75,-182.5 -784,-135 -1117.75,-257.248 -1448.75,-531.252 -147,-121 -187,-187.748 -175,-288.748 36,-312 716.75,-423 1923.75,-310 352,33 697.25,64.748 766.25,68.748 124,9 124.75,6.752 138.75,-476.248 l 15,-485 -191.25,-52.5 c -1162,-313 -3961.5,-952.5 -4167.5,-952.5 -56,0 -255.5,91.5 -442.5,202.5 -379,225 -633,288.76 -800,198.748 -86,-46 -105,-87.496 -80,-187.496 62,-244.02 807,-1263.752 2160,-2953.752 748,-936 809.75,-1025.744 763.75,-1143.752 -74,-196.988 -27.25,-270.748 378.75,-583.748 241,-185 375,-322.248 375,-386.252 0,-118.984 -382.5,-743.748 -867.5,-1418.748 -197,-273 -373.5,-520.756 -392.5,-548.748 -21,-32.004 -107.25,-10 -231.25,60 -109,60.98 -213.5,111.248 -232.5,111.248 -20,0 -21.5,-131.5 -2.5,-292.5 l 33.75,-290 -291.25,-252.5 c -835,-722 -2138.75,-1493.752 -3528.75,-2088.752 -432,-185 -495.5,-248.248 -377.5,-366.248 135,-135 1104,-19.5 1785,212.5 610,208 1551.25,769.244 2551.25,1521.252 342,256.988 423.25,299.248 471.25,241.248 921,-1124 1780,-2269.5 2030,-2707.5 189,-330 363,-892.5 720,-2327.5 154,-619 338,-1277.5 410,-1462.5 156,-401 368.5,-610.752 567.5,-563.748 634,150 899.25,1054.748 836.25,2853.748 -35,1000 -48.75,1164.5 -308.75,3597.5 -117,1092 -191.75,2068 -208.75,2730 l -26.25,1030 162.5,32.5 c 89,18 193.25,32.5 231.25,32.5 37,0 189.5,-242.5 337.5,-537.5 981,-1956 2268.75,-3670 3403.75,-4535 930,-708 1160.75,-709 2298.75,0 522,326 708.75,328 1553.75,10 791,-297 1158,-375.756 1265,-268.748 71,70.98 69.5,88.496 -17.5,187.496 -165,186.016 -855.5,607 -2837.5,1730 -2966,1681.016 -4161.25,2442.252 -4901.25,3121.252 l -291.25,267.5 106.25,237.5 c 94,212 123.25,237.248 266.25,236.252 266,-2 599.25,-97.252 796.25,-226.252 206,-136 396.25,-157.252 481.25,-56.252 30,36.016 75,250.016 100,475 44,392.004 61,431.252 410,971.252 714,1101 1544.5,2322.5 1622.5,2387.5 44,37 297.5,125.252 562.5,196.248 437,117.004 483.5,141.252 517.5,266.252 62,234 -36.5,442.5 -457.5,962.5 -489,603 -865,994.748 -1090,1133.752 -148,92.996 -211.25,99.748 -596.25,68.748 -564,-46 -1686.25,-230.752 -2896.25,-478.748 -535,-109.02 -993.75,-198.752 -1018.75,-198.752 -53,0 -57.75,285.252 -13.75,761.248 l 31.25,336.252 306.25,98.748 c 168,55 759,212.252 1315,351.252 1540,384 1629.5,444.5 1337.5,907.5 -202,320 -472.5,417.5 -1147.5,417.5 l -550,0 -506.25,-235 c -278,-131 -531.25,-237.5 -561.25,-237.5 -131,0 232.5,1084.252 437.5,1306.248 71,77.004 299,235.008 505,350 537,299 690.75,430.252 828.75,701.252 131,259 149.75,462 68.75,750 -94,340 -163.5,383.248 -972.5,591.252 -830,213.984 -2134.5,620.748 -3187.5,993.748 -379,134 -687.5,237 -687.5,230 z m 6112.5,-7822.5 -32.5,-205 c -26,-166 -163.25,-629 -406.25,-1380 -14,-44 -61.25,-37.752 -181.25,21.248 -350,175 -1458.25,126.252 -2581.25,-113.748 l -113.75,-25 13.75,688.748 13.75,688.752 325,37.5 c 179,21 786,91.5 1350,157.5 564,66 1156.75,123 1318.75,125 l 293.75,5 z m -4296.25,-500 -33.75,-682.5 c -18,-376 -40,-692.5 -50,-702.5 -10,-10 -556.75,-118.5 -1213.75,-242.5 l -1193.75,-225 -387.5,405 c -214,222 -387.5,431.252 -387.5,466.252 0,92.996 2796,960.248 3145,976.248 l 121.25,5 z m 2806.25,-1953.752 c 197.589,-2.36 364.062,-23.436 487.5,-62.496 l 185,-58.752 -238.75,-550 c -132,-302 -297.75,-665 -368.75,-805 l -131.25,-253.752 -565,-33.748 c -311,-18 -707,-32.5 -880,-32.5 l -313.75,0 13.75,758.752 13.75,760 172.5,43.748 c 605,156.752 1190.304,238.972 1625,233.748 z M 15050,59450 l 0,-725 0,-725 -592.5,0 -593.75,0 -193.75,281.248 c -434,625 -608.5,894.252 -592.5,911.252 19,20 1632,241 1835,250 l 137.5,7.5 z m -740,-2650 376.25,0 376.25,0 -26.25,-962.5 c -39,-1361 -187.25,-2004 -696.25,-3015 -117,-233 -228.5,-422.5 -247.5,-422.5 -19,0 -186.75,185.5 -373.75,412.5 -187,226 -552.25,630.5 -811.25,897.5 l -471.25,485 160,190 c 346,411 1007.25,1317.5 1351.25,1852.5 l 362.5,562.5 z"
         id="path9512" />
    </g>
  </defs>
  <g
     id="layer1" >
     <use xlink:href="#ton" />
  </g>
</svg>
